<svg width="104" height="104" viewBox="0 0 104 104" fill="none" xmlns="http://www.w3.org/2000/svg">
<path d="M102.477 49.9686C103.318 49.9686 104 49.2865 104 48.4451V19.4441C104 15.9764 101.25 13.1404 97.8163 12.9992V11.3671C97.8163 8.4754 95.4637 6.1228 92.572 6.1228H80.7934C79.9518 6.1228 79.2699 6.8049 79.2699 7.64624C79.2699 8.48758 79.9518 9.16968 80.7934 9.16968H92.572C93.7834 9.16968 94.7692 10.1552 94.7692 11.3669V12.9921H59.7076V11.3669C59.7076 10.1554 60.6931 9.16968 61.9046 9.16968H73.6836C74.5251 9.16968 75.207 8.48758 75.207 7.64624C75.207 6.8049 74.5251 6.1228 73.6836 6.1228H61.9044C59.0129 6.1228 56.6603 8.4754 56.6603 11.3671V12.9994C54.794 13.076 53.1304 13.9488 52 15.287C50.8696 13.949 49.2058 13.0762 47.3397 12.9994V11.3673C47.3397 8.4756 44.9871 6.12301 42.0954 6.12301H11.428C8.53653 6.12301 6.18394 8.4756 6.18394 11.3673V12.9994C2.75031 13.1404 0 15.9766 0 19.4441C0 22.8217 0 81.0209 0 84.5557C0 88.0234 2.75031 90.8594 6.18394 91.0006V92.6327C6.18394 95.5244 8.53653 97.877 11.428 97.877H42.0954C44.9871 97.877 47.3397 95.5244 47.3397 92.6327V91.0006C49.206 90.924 50.8694 90.0512 52 88.713C53.1304 90.051 54.7942 90.9238 56.6603 91.0006V92.6327C56.6603 95.5244 59.0129 97.877 61.9044 97.877H92.5718C95.4635 97.877 97.8161 95.5244 97.8161 92.6327V91.0006C101.25 90.8596 104 88.0234 104 84.5557V55.5549C104 54.7136 103.318 54.0315 102.476 54.0315C101.635 54.0315 100.953 54.7136 100.953 55.5549V60.8556H93.5472C92.3672 60.8556 91.2687 61.3968 90.5338 62.3405C83.7667 71.0292 70.6479 71.0223 63.9007 62.2861C63.1985 61.3769 62.1428 60.8556 61.0045 60.8556H53.5234V43.1446H60.9641C62.1248 43.1446 63.2032 42.6126 63.9226 41.6851C70.6771 32.979 83.7791 32.9782 90.5387 41.6668C91.2698 42.6061 92.3628 43.1446 93.5374 43.1446H100.953V48.4453C100.953 49.2865 101.635 49.9686 102.477 49.9686ZM9.23102 11.3673C9.23102 10.1559 10.2166 9.17008 11.428 9.17008H42.0954C43.3069 9.17008 44.2926 10.1556 44.2926 11.3673V12.9927H9.23102V11.3673ZM44.2928 92.6329C44.2926 93.8444 43.3069 94.8301 42.0954 94.8301H11.428C10.2166 94.8301 9.23102 93.8446 9.23102 92.6329V91.0077H44.2926V92.6329H44.2928ZM47.0718 87.9606C45.1795 87.9606 8.4173 87.9606 6.45166 87.9606C4.57417 87.9606 3.04688 86.4334 3.04688 84.5561V81.3008H50.4762V84.5561C50.4762 86.4334 48.9491 87.9606 47.0718 87.9606ZM50.4764 78.2535H3.04708V63.9027H10.528C10.7153 63.9027 10.8918 63.9923 11.0126 64.1487C18.9847 74.4709 34.4784 74.4622 42.461 64.2129C42.6146 64.0159 42.8366 63.9027 43.0704 63.9027H50.4762L50.4764 78.2535ZM50.4764 60.8556H43.0706C41.8907 60.8556 40.7922 61.3968 40.0573 62.3405C33.2902 71.0292 20.1713 71.0223 13.4241 62.2861C12.7219 61.3769 11.6663 60.8556 10.528 60.8556H3.04728V43.1446H10.488C11.6486 43.1446 12.727 42.6126 13.4465 41.6851C20.201 32.979 33.303 32.9782 40.0625 41.6668C40.7936 42.6061 41.8866 43.1446 43.0613 43.1446H50.4764V60.8556ZM50.4764 40.0975H43.0613C42.8334 40.0975 42.6168 39.9874 42.4673 39.7954C34.4803 29.5297 19.007 29.5468 11.039 39.8174C10.9007 39.9953 10.7 40.0975 10.488 40.0975H3.04708V25.7467H50.4764V40.0975ZM50.4766 22.6996H50.4764H3.04708V19.4441C3.04708 17.5667 4.57438 16.0396 6.45186 16.0396C8.34417 16.0396 45.1063 16.0396 47.072 16.0396C48.9493 16.0396 50.4766 17.5669 50.4766 19.4441V22.6996ZM53.5234 19.4441C53.5234 17.5667 55.0507 16.0396 56.9282 16.0396C58.8205 16.0396 95.5827 16.0396 97.5483 16.0396C99.4256 16.0396 100.953 17.5669 100.953 19.4441V22.6994H53.5234V19.4441ZM94.769 92.6329C94.769 93.8444 93.7832 94.8301 92.5718 94.8301H61.9044C60.6929 94.8301 59.7074 93.8446 59.7074 92.6329V91.0077H94.769V92.6329ZM97.5483 87.9606C95.656 87.9606 58.8939 87.9606 56.9282 87.9606C55.0507 87.9606 53.5234 86.4334 53.5234 84.5561V81.3008H100.953V84.5561H100.953C100.953 86.4334 99.4256 87.9606 97.5483 87.9606ZM61.0045 63.9027C61.1918 63.9027 61.3683 63.9923 61.4892 64.1487C69.4612 74.4709 84.955 74.4622 92.9376 64.2129C93.0912 64.0159 93.3132 63.9027 93.547 63.9027H100.953V78.2535H53.5234V63.9027H61.0045ZM93.5378 40.0975C93.3099 40.0975 93.0934 39.9874 92.9439 39.7954C84.9568 29.5297 69.4836 29.5468 61.5156 39.8174C61.3773 39.9953 61.1766 40.0975 60.9645 40.0975H53.5234V25.7467H100.953V40.0975H93.5378Z" fill="#4E4E4E"/>
<path d="M36.2302 56.3657C35.5256 55.9046 34.5818 56.1019 34.1208 56.8059C30.6428 62.1184 22.8776 62.1134 19.4031 56.8059C18.9424 56.1021 17.9985 55.9048 17.2937 56.3657C16.5898 56.8266 16.3926 57.7707 16.8535 58.475C21.5345 65.6252 31.9942 65.6175 36.6704 58.475C37.1311 57.7711 36.9338 56.8266 36.2302 56.3657Z" fill="#4E4E4E"/>
<path d="M36.6704 45.5252C31.9894 38.375 21.5294 38.3827 16.8535 45.5252C16.3926 46.229 16.5898 47.1733 17.2937 47.6344C17.9977 48.0953 18.942 47.8983 19.4031 47.1942C22.8812 41.8815 30.6465 41.887 34.1208 47.1942C34.5814 47.8981 35.5256 48.0955 36.2302 47.6344C36.934 47.1735 37.1313 46.2292 36.6704 45.5252Z" fill="#4E4E4E"/>
<path d="M86.7065 56.3657C86.0021 55.9046 85.0582 56.1019 84.5971 56.8059C81.1192 62.1184 73.3539 62.1134 69.8794 56.8059C69.4186 56.1021 68.4746 55.9048 67.77 56.3657C67.0662 56.8266 66.8689 57.7707 67.3298 58.475C72.0108 65.6252 82.4706 65.6175 87.1467 58.475C87.6074 57.7711 87.4104 56.8266 86.7065 56.3657Z" fill="#4E4E4E"/>
<path d="M87.1467 45.5252C82.4657 38.375 72.006 38.3827 67.3298 45.5252C66.8689 46.229 67.0662 47.1733 67.77 47.6344C68.4742 48.0953 69.4184 47.8983 69.8794 47.1942C73.3576 41.8815 81.1228 41.887 84.5971 47.1942C85.0578 47.8981 86.0019 48.0955 86.7065 47.6344C87.4104 47.1735 87.6074 46.229 87.1467 45.5252Z" fill="#4E4E4E"/>
</svg>
