<svg width="20" height="20" viewBox="0 0 20 20" fill="none" xmlns="http://www.w3.org/2000/svg">
<g clip-path="url(#clip0_132_256)">
<path d="M17.5702 1.21543C17.3411 0.510859 16.6784 0 15.8984 0C15.1346 0 14.4833 0.489922 14.2414 1.17188H11.657C11.4152 0.489922 10.7639 0 10 0C9.23613 0 8.58484 0.489922 8.34297 1.17188H5.75859C5.51672 0.489922 4.86543 0 4.10156 0C3.32156 0 2.65895 0.510859 2.42977 1.21543C1.0518 1.45344 0 2.6566 0 4.10156V18.2422C0 19.2114 0.788555 20 1.75781 20H18.2422C19.2114 20 20 19.2114 20 18.2422V4.10156C20 2.6566 18.9482 1.45344 17.5702 1.21543ZM15.3125 1.75781C15.3125 1.43473 15.5754 1.17188 15.8984 1.17188C16.2215 1.17188 16.4844 1.43473 16.4844 1.75781V2.92969C16.4844 3.25277 16.2215 3.51562 15.8984 3.51562C15.5754 3.51562 15.3125 3.25277 15.3125 2.92969V1.75781ZM9.41406 1.75781C9.41406 1.43473 9.67691 1.17188 10 1.17188C10.3231 1.17188 10.5859 1.43473 10.5859 1.75781V2.92969C10.5859 3.25277 10.3231 3.51562 10 3.51562C9.67691 3.51562 9.41406 3.25277 9.41406 2.92969V1.75781ZM3.51562 1.75781C3.51562 1.43473 3.77848 1.17188 4.10156 1.17188C4.42465 1.17188 4.6875 1.43473 4.6875 1.75781V2.92969C4.6875 3.25277 4.42465 3.51562 4.10156 3.51562C3.77848 3.51562 3.51562 3.25277 3.51562 2.92969V1.75781ZM18.8281 18.2422C18.8281 18.5653 18.5653 18.8281 18.2422 18.8281H1.75781C1.43473 18.8281 1.17188 18.5653 1.17188 18.2422V7.07031H18.8281V18.2422ZM18.8281 5.89844H1.17188V4.10156C1.17188 3.3377 1.66176 2.68641 2.34375 2.44453V2.92969C2.34375 3.89895 3.1323 4.6875 4.10156 4.6875C5.07082 4.6875 5.85938 3.89895 5.85938 2.92969V2.34375H8.24219V2.92969C8.24219 3.89895 9.03074 4.6875 10 4.6875C10.9693 4.6875 11.7578 3.89895 11.7578 2.92969V2.34375H14.1406V2.92969C14.1406 3.89895 14.9292 4.6875 15.8984 4.6875C16.8677 4.6875 17.6562 3.89895 17.6562 2.92969V2.44453C18.3382 2.68641 18.8281 3.3377 18.8281 4.10156V5.89844Z" fill="white"/>
<path d="M7.78695 11.8698L9.24246 10.4143C9.60992 10.0468 9.34981 9.41406 8.82813 9.41406H5.3125C4.98891 9.41406 4.72656 9.67641 4.72656 10C4.72656 10.3236 4.98891 10.5859 5.3125 10.5859H7.41356L6.07008 11.9295C5.70258 12.2969 5.9627 12.9297 6.48438 12.9297H7.07031C7.71648 12.9297 8.24219 13.4554 8.24219 14.1016C8.24219 14.7477 7.71648 15.2734 7.07031 15.2734C6.42414 15.2734 5.89844 14.7477 5.89844 14.1016C5.89844 13.778 5.63609 13.5156 5.3125 13.5156C4.98891 13.5156 4.72656 13.778 4.72656 14.1016C4.72656 15.3939 5.77797 16.4453 7.07031 16.4453C8.36266 16.4453 9.41406 15.3939 9.41406 14.1016C9.41406 13.059 8.72988 12.1733 7.78695 11.8698Z" fill="white"/>
<path d="M15.8594 15.2734H14.1016V9.99999C14.1016 9.48038 13.4701 9.21675 13.1013 9.58569L10.7576 11.9294C10.5288 12.1583 10.5288 12.5292 10.7576 12.7581C10.9864 12.9869 11.3574 12.9869 11.5862 12.7581L12.9297 11.4146V15.2734H11.1719C10.8483 15.2734 10.5859 15.5358 10.5859 15.8594C10.5859 16.183 10.8483 16.4453 11.1719 16.4453H15.8594C16.183 16.4453 16.4453 16.183 16.4453 15.8594C16.4453 15.5358 16.183 15.2734 15.8594 15.2734Z" fill="white"/>
</g>
<defs>
<clipPath id="clip0_132_256">
<rect width="20" height="20" fill="white"/>
</clipPath>
</defs>
</svg>
