<svg width="40" height="40" viewBox="0 0 40 40" fill="none" xmlns="http://www.w3.org/2000/svg">
<path d="M20 3.75C16.7861 3.75 13.6443 4.70305 10.972 6.48862C8.29968 8.27419 6.21688 10.8121 4.98696 13.7814C3.75703 16.7507 3.43523 20.018 4.06224 23.1702C4.68925 26.3224 6.23691 29.2179 8.50951 31.4905C10.7821 33.7631 13.6776 35.3107 16.8298 35.9378C19.982 36.5648 23.2493 36.243 26.2186 35.013C29.1879 33.7831 31.7258 31.7003 33.5114 29.028C35.297 26.3557 36.25 23.2139 36.25 20C36.245 15.6918 34.5314 11.5614 31.485 8.515C28.4386 5.4686 24.3082 3.75496 20 3.75ZM20 33.75C17.2805 33.75 14.6221 32.9436 12.3609 31.4327C10.0997 29.9218 8.33736 27.7744 7.29666 25.2619C6.25595 22.7494 5.98365 19.9847 6.5142 17.3175C7.04475 14.6503 8.35431 12.2003 10.2773 10.2773C12.2003 8.35431 14.6503 7.04475 17.3175 6.5142C19.9847 5.98366 22.7494 6.25595 25.2619 7.29666C27.7744 8.33736 29.9218 10.0997 31.4327 12.3609C32.9436 14.6221 33.75 17.2805 33.75 20C33.7457 23.6454 32.2957 27.1403 29.718 29.718C27.1403 32.2957 23.6454 33.7457 20 33.75Z" fill="#898989"/>
<path d="M27.1337 12.8663C26.8993 12.6319 26.5815 12.5003 26.25 12.5003C25.9185 12.5003 25.6007 12.6319 25.3662 12.8663L20 18.2325L14.6337 12.8663C14.398 12.6386 14.0822 12.5126 13.7545 12.5154C13.4268 12.5183 13.1132 12.6497 12.8815 12.8815C12.6497 13.1132 12.5183 13.4268 12.5154 13.7545C12.5126 14.0822 12.6386 14.398 12.8662 14.6337L18.2325 20L12.8662 25.3662C12.6386 25.602 12.5126 25.9178 12.5154 26.2455C12.5183 26.5732 12.6497 26.8868 12.8815 27.1185C13.1132 27.3503 13.4268 27.4817 13.7545 27.4846C14.0822 27.4874 14.398 27.3614 14.6337 27.1338L20 21.7675L25.3662 27.1338C25.602 27.3614 25.9178 27.4874 26.2455 27.4846C26.5732 27.4817 26.8868 27.3503 27.1185 27.1185C27.3503 26.8868 27.4817 26.5732 27.4846 26.2455C27.4874 25.9178 27.3614 25.602 27.1337 25.3662L21.7675 20L27.1337 14.6337C27.3681 14.3993 27.4997 14.0815 27.4997 13.75C27.4997 13.4185 27.3681 13.1007 27.1337 12.8663Z" fill="#898989"/>
</svg>
