<svg width="101" height="101" viewBox="0 0 101 101" fill="none" xmlns="http://www.w3.org/2000/svg">
<g clip-path="url(#clip0_11_181)">
<path d="M45.1789 22.5557C45.949 22.2081 46.6508 21.7463 47.2402 21.1344C48.5644 19.7597 49.2511 17.8548 49.1722 15.7724C49.0625 12.8196 47.1872 10.2478 44.4958 9.20595C44.3589 6.99904 43.3997 4.9635 41.7784 3.45442C40.1054 1.89356 37.917 1.0749 35.6422 1.16861C33.3231 1.25614 31.2038 2.2548 29.6688 3.94759C27.5864 2.86756 24.9751 2.88975 22.9001 4.00183C21.0976 1.24011 17.8933 -0.309654 14.5287 0.054055C10.915 0.447353 7.87217 3.09934 6.95735 6.65136C6.67871 7.73755 6.6072 8.85087 6.74159 9.94569C6.11404 9.9309 5.47046 10.0147 4.84661 10.1886C2.18968 10.9296 0.25155 13.2746 0.0222284 16.0239C-0.130653 17.8832 0.50183 19.7313 1.75693 21.0949C2.3918 21.7849 3.16222 22.3231 4.00707 22.6877L7.21873 73.0251C7.46777 77.1381 7.30133 81.2819 6.73789 85.2716L4.7788 95.104C4.54578 96.7512 5.00565 98.4255 6.00924 99.5807C6.80323 100.496 7.85737 101 8.97685 101H40.1867C41.3087 101 42.3641 100.494 43.1593 99.5758C44.1641 98.4144 44.6215 96.7364 44.3688 95.0091L42.4824 85.9608C41.8882 81.8527 41.7119 77.6559 41.9609 73.4923L45.1789 22.5557ZM2.5386 16.2323C2.67792 14.5568 3.9059 13.0724 5.52471 12.6199C5.89088 12.5175 6.25706 12.467 6.62323 12.467C7.08187 12.467 7.53928 12.5471 7.99053 12.7086C8.45164 12.8714 8.96699 12.7567 9.31344 12.4078C9.65865 12.0589 9.76962 11.5423 9.59947 11.0824C9.14083 9.83966 9.07425 8.5599 9.40344 7.28014C10.0569 4.74035 12.2268 2.84536 14.8024 2.56426C17.5776 2.25727 20.1815 3.77621 21.2961 6.3271C21.4551 6.69204 21.7782 6.96082 22.1653 7.05082C22.5524 7.14082 22.9605 7.04466 23.2663 6.78698C24.9208 5.39256 27.4582 5.31365 29.1978 6.62547C29.474 6.83383 29.8192 6.91767 30.1632 6.86218C30.5035 6.8067 30.8055 6.61314 31.0003 6.32833C32.0927 4.72555 33.82 3.76388 35.7384 3.69114C37.3375 3.64182 38.8786 4.2028 40.0573 5.30132C41.2384 6.40108 41.9214 7.89783 41.9831 9.51541C41.9905 9.70404 41.9843 9.88775 41.9745 10.0727C41.9436 10.6817 42.3542 11.2267 42.9497 11.3648C45.0469 11.8542 46.5683 13.7048 46.6497 15.8661C46.7014 17.2581 46.265 18.507 45.4217 19.3824C44.587 20.2491 43.3972 20.7065 41.9782 20.7065H23.6164C22.079 20.7065 20.8276 21.9604 20.8276 23.5015V27.7588C20.8276 28.5491 20.4935 29.3061 19.9091 29.8362C19.3247 30.3689 18.5763 30.6167 17.7687 30.5452C16.3645 30.4108 15.2647 29.1101 15.2647 27.5837V23.5015C15.2647 21.9604 14.0133 20.7065 12.4759 20.7065H6.62076C5.46676 20.7065 4.39906 20.2368 3.61493 19.3849C2.8234 18.5267 2.44243 17.4073 2.5386 16.2323ZM6.62076 23.2315H12.4759C12.6213 23.2315 12.7397 23.3524 12.7397 23.5015V27.5837C12.7397 30.3972 14.843 32.8014 17.5296 33.0578C17.6972 33.0739 17.8661 33.0825 18.035 33.0825C19.3506 33.0825 20.6303 32.5943 21.608 31.7053C22.7164 30.6968 23.3526 29.2592 23.3526 27.7588V23.5015C23.3526 23.3524 23.4709 23.2315 23.6164 23.2315H41.9782C42.1968 23.2315 42.3975 23.1913 42.6095 23.176L41.9576 33.4955C31.0922 33.5729 25.3984 34.9056 19.9029 36.1993C16.1774 37.0756 12.6317 37.9018 7.53951 38.3967L6.57183 23.229C6.58825 23.2291 6.60435 23.2315 6.62076 23.2315ZM41.8845 95.448C42.0176 96.369 41.7747 97.3171 41.2495 97.9237C41.0325 98.1752 40.67 98.4748 40.1867 98.4748H8.97685C8.49355 98.4748 8.13354 98.1764 7.91655 97.9262C7.39257 97.3233 7.14845 96.3776 7.26681 95.5282L9.2259 85.6957C9.8251 81.468 9.9977 77.1541 9.73879 72.8685L7.70041 40.9178C13.0176 40.4054 16.8169 39.5198 20.4811 38.6565C26.055 37.3454 31.3464 36.1069 41.798 36.0214L39.4408 73.337C39.1819 77.6756 39.3644 82.045 39.9981 86.3997L41.8845 95.448Z" fill="#4E4E4E"/>
<path d="M28.6873 58.6495C32.1173 58.6495 34.9086 55.8495 34.9086 52.4073C34.9086 48.965 32.1173 46.165 28.6873 46.165C25.2574 46.165 22.4673 48.965 22.4673 52.4073C22.4673 55.8495 25.2574 58.6495 28.6873 58.6495ZM28.6873 48.69C30.7253 48.69 32.3836 50.3582 32.3836 52.4073C32.3836 54.4564 30.7253 56.1245 28.6873 56.1245C26.6493 56.1245 24.9923 54.4564 24.9923 52.4073C24.9923 50.3582 26.6493 48.69 28.6873 48.69Z" fill="#4E4E4E"/>
<path d="M28.6874 78.328C25.0491 78.328 22.0901 81.2981 22.0901 84.95C22.0901 88.6006 25.0491 91.5707 28.6874 91.5707C32.3257 91.5707 35.2859 88.6006 35.2859 84.95C35.2859 81.2981 32.3257 78.328 28.6874 78.328ZM28.6874 89.0457C26.4423 89.0457 24.6151 87.2087 24.6151 84.95C24.6151 82.6913 26.4423 80.853 28.6874 80.853C30.9338 80.853 32.7609 82.6913 32.7609 84.95C32.7609 87.2087 30.9338 89.0457 28.6874 89.0457Z" fill="#4E4E4E"/>
<path d="M28.2854 69.5091C28.2854 65.6451 25.1539 62.5024 21.3047 62.5024C17.4556 62.5024 14.324 65.6451 14.324 69.5091C14.324 73.373 17.4556 76.5157 21.3047 76.5157C25.1539 76.5157 28.2854 73.373 28.2854 69.5091ZM21.3047 73.9907C18.8475 73.9907 16.849 71.9798 16.849 69.5091C16.849 67.0383 18.8475 65.0274 21.3047 65.0274C23.7619 65.0274 25.7604 67.0383 25.7604 69.5091C25.7604 71.9798 23.7619 73.9907 21.3047 73.9907Z" fill="#4E4E4E"/>
<path d="M97.0143 22.5538C97.7787 22.2074 98.476 21.7485 99.062 21.1405C100.386 19.7646 101.073 17.8585 100.994 15.7724C100.884 12.8208 99.0151 10.249 96.3323 9.20719C96.1967 7.00028 95.2399 4.96475 93.6248 3.45566C91.9542 1.8948 89.7967 1.06505 87.5034 1.16862C85.1917 1.25615 83.0785 2.25358 81.5473 3.94636C79.4723 2.86633 76.8721 2.89099 74.8045 3.99814C73.0081 1.23889 69.8062 -0.31211 66.4577 0.0540645C62.8526 0.448596 59.8184 3.09935 58.9061 6.6526C58.6287 7.73756 58.5572 8.85088 58.6916 9.94447C58.0578 9.9494 57.4254 10.0147 56.804 10.1886C54.152 10.9308 52.22 13.2758 51.9944 16.0239C51.8415 17.8869 52.474 19.7375 53.7303 21.1023C54.361 21.7873 55.1262 22.3232 55.9654 22.6867L59.1662 73.0251C59.414 77.1393 59.2488 81.2843 58.6879 85.2716L56.7337 95.1053C56.5019 96.7561 56.963 98.4317 57.9678 99.5869C58.7594 100.498 59.8086 101 60.9231 101H92.0344C93.1514 101 94.2031 100.496 94.9958 99.5807C96.0007 98.4193 96.4581 96.7389 96.2066 95.0103L94.3264 85.962C93.7321 81.849 93.5583 77.6522 93.8061 73.4911L97.0143 22.5538ZM54.512 16.2311C54.6489 14.5568 55.8707 13.0724 57.4845 12.6199C57.8495 12.5176 58.2144 12.467 58.5769 12.467C59.0343 12.467 59.4893 12.5471 59.938 12.7087C60.3979 12.8702 60.9157 12.7567 61.2609 12.4091C61.6062 12.0601 61.7184 11.5436 61.5494 11.0837C61.0908 9.83967 61.0242 8.55991 61.3522 7.28015C62.0044 4.73912 64.1657 2.84414 66.7314 2.56427C69.4943 2.25727 72.0871 3.77499 73.1992 6.32588C73.3583 6.69205 73.6825 6.96083 74.0709 7.05083C74.4617 7.1433 74.8686 7.04343 75.1731 6.78452C76.8153 5.39257 79.3391 5.31366 81.0763 6.62424C81.3525 6.8326 81.6964 6.91767 82.0429 6.86219C82.3832 6.80671 82.6865 6.61315 82.8813 6.32711C83.9699 4.72433 85.6898 3.76389 87.5996 3.69115C89.1839 3.6369 90.725 4.20157 91.9 5.3001C93.0774 6.39985 93.7592 7.89661 93.8196 9.51542C93.827 9.70159 93.8221 9.88406 93.8122 10.0653C93.7777 10.6768 94.1883 11.2255 94.785 11.3648C96.8748 11.853 98.39 13.7048 98.4714 15.8661C98.5232 17.2606 98.0867 18.512 97.2434 19.3886C96.4124 20.2504 95.2289 20.7065 93.8196 20.7065H75.5159C73.9809 20.7065 72.7332 21.9604 72.7332 23.5015V27.7588C72.7332 28.5515 72.3978 29.311 71.8147 29.8412C71.2327 30.3701 70.4782 30.6216 69.6891 30.5452C68.2898 30.4108 67.1949 29.1101 67.1949 27.5837V23.5015C67.1949 21.9604 65.946 20.7065 64.411 20.7065H58.5757C57.4291 20.7065 56.3688 20.2393 55.5871 19.391C54.7956 18.5317 54.4146 17.4097 54.512 16.2311ZM58.5757 23.2315H64.411C64.5541 23.2315 64.6699 23.3524 64.6699 23.5015V27.5837C64.6699 30.3972 66.7684 32.8014 69.4475 33.0578C69.6164 33.0739 69.7841 33.0825 69.953 33.0825C71.2623 33.0825 72.5371 32.5955 73.5124 31.7103C74.622 30.7017 75.2582 29.2617 75.2582 27.7588V23.5015C75.2582 23.3524 75.3741 23.2315 75.5159 23.2315H93.8196C94.0362 23.2315 94.2351 23.1915 94.4451 23.1764L93.7952 33.4955C82.9332 33.573 77.2408 34.9057 71.7456 36.1993C68.0483 37.0693 64.5259 37.8896 59.4939 38.3857L58.5302 23.2292C58.5455 23.2292 58.5604 23.2315 58.5757 23.2315ZM93.721 95.448C93.8542 96.3715 93.6113 97.322 93.0861 97.9274C92.8703 98.1777 92.5128 98.4748 92.0344 98.4748H60.9231C60.446 98.4748 60.0884 98.1789 59.8727 97.9311C59.3487 97.3282 59.1046 96.3801 59.2217 95.5282L61.1759 85.6945C61.7726 81.4705 61.944 77.1566 61.6863 72.8685L59.6542 40.9068C64.9125 40.3927 68.6861 39.5139 72.3238 38.6565C77.8963 37.3454 83.1874 36.107 93.6361 36.0214L91.286 73.337C91.0271 77.6719 91.2096 82.0401 91.8396 86.3985L93.721 95.448Z" fill="#4E4E4E"/>
<path d="M80.5707 58.6495C83.992 58.6495 86.7759 55.8495 86.7759 52.4073C86.7759 48.965 83.992 46.165 80.5707 46.165C77.1494 46.165 74.3667 48.965 74.3667 52.4073C74.3667 55.8495 77.1494 58.6495 80.5707 58.6495ZM80.5707 48.69C82.6001 48.69 84.2509 50.3582 84.2509 52.4073C84.2509 54.4564 82.6001 56.1245 80.5707 56.1245C78.5426 56.1245 76.8917 54.4564 76.8917 52.4073C76.8917 50.3582 78.5426 48.69 80.5707 48.69Z" fill="#4E4E4E"/>
<path d="M80.5705 78.328C76.9421 78.328 73.9905 81.2981 73.9905 84.95C73.9905 88.6006 76.9421 91.5707 80.5705 91.5707C84.199 91.5707 87.1518 88.6006 87.1518 84.95C87.1518 81.2981 84.199 78.328 80.5705 78.328ZM80.5705 89.0457C78.334 89.0457 76.5155 87.2087 76.5155 84.95C76.5155 82.6913 78.334 80.853 80.5705 80.853C82.807 80.853 84.6268 82.6913 84.6268 84.95C84.6268 87.2087 82.807 89.0457 80.5705 89.0457Z" fill="#4E4E4E"/>
<path d="M80.1738 69.5091C80.1738 65.6451 77.0508 62.5024 73.2115 62.5024C69.3722 62.5024 66.2493 65.6451 66.2493 69.5091C66.2493 73.373 69.3722 76.5157 73.2115 76.5157C77.0508 76.5157 80.1738 73.373 80.1738 69.5091ZM73.2115 73.9907C70.7654 73.9907 68.7743 71.9798 68.7743 69.5091C68.7743 67.0383 70.7654 65.0274 73.2115 65.0274C75.6576 65.0274 77.6488 67.0383 77.6488 69.5091C77.6488 71.9798 75.6576 73.9907 73.2115 73.9907Z" fill="#4E4E4E"/>
</g>
<defs>
<clipPath id="clip0_11_181">
<rect width="101" height="101" fill="white"/>
</clipPath>
</defs>
</svg>
