<svg width="101" height="101" viewBox="0 0 101 101" fill="none" xmlns="http://www.w3.org/2000/svg">
<path d="M100.724 88.2904C100.445 87.901 99.9961 87.67 99.5175 87.67H89.4799L90.9657 81.7583C91.003 81.6121 91.0182 81.4565 91.0095 81.3056C91.0038 81.2064 90.8523 78.8504 89.3897 76.5059C88.0241 74.3169 85.2471 71.7074 79.7718 71.7074C74.2965 71.7074 71.5196 74.3169 70.1542 76.5059C70.106 76.5831 70.0595 76.6602 70.0143 76.7373C69.9689 76.6602 69.9226 76.5831 69.8744 76.5059C68.5088 74.3169 65.7318 71.7074 60.2565 71.7074C58.492 71.7074 57.009 71.9795 55.7618 72.4202V65.1448H77.9016C85.088 65.1448 91.4792 60.5763 93.8051 53.7768C93.96 53.3241 93.8868 52.8244 93.6085 52.435C93.3301 52.0456 92.8809 51.8146 92.4024 51.8146H79.7231L81.2087 45.9031C81.2462 45.7567 81.2614 45.6011 81.2525 45.4502C81.2468 45.3512 81.0953 42.995 79.6328 40.6505C78.2673 38.4615 75.4904 35.852 70.0151 35.852C64.5398 35.852 61.7629 38.4615 60.3972 40.6505C60.3491 40.7277 60.3025 40.8048 60.2573 40.8819C60.212 40.8048 60.1654 40.7277 60.1175 40.6505C59.2862 39.3178 57.93 37.8304 55.762 36.8697V29.2894H67.2123C74.4003 29.2894 80.7976 24.7215 83.1313 17.923C83.2867 17.47 83.2139 16.97 82.9356 16.5802C82.6574 16.1906 82.2081 15.9592 81.7291 15.9592H69.9658L71.4508 10.0511C71.4883 9.90471 71.5034 9.74906 71.4946 9.59816C71.4823 9.38846 71.1476 4.43138 66.8002 1.69648C66.1068 1.26033 65.1919 1.46864 64.756 2.16183C64.32 2.85483 64.5283 3.76994 65.2213 4.2059C66.9916 5.31946 67.8201 6.98143 68.206 8.20132H52.2947C52.9206 6.18881 54.7771 2.96471 60.2569 2.96471C61.0758 2.96471 61.7394 2.30091 61.7394 1.48225C61.7394 0.663602 61.075 0 60.2561 0C54.7808 0 52.0039 2.60963 50.6385 4.79849C50.5903 4.87562 50.5438 4.95275 50.4986 5.02988C50.4532 4.95275 50.4069 4.87562 50.3587 4.79849C48.9929 2.60943 46.216 0 40.7407 0C35.2653 0 32.4884 2.60963 31.123 4.79849C29.6604 7.14299 29.5089 9.49913 29.503 9.59816C29.4943 9.74729 29.5091 9.90155 29.5456 10.0463L31.0316 15.959H19.2695C18.2697 15.959 17.5424 16.9755 17.8673 17.9226C20.201 24.7211 26.5983 29.289 33.7862 29.289H45.2365V36.8693C43.0686 37.83 41.7124 39.3176 40.8811 40.6501C40.833 40.7273 40.7864 40.8044 40.7411 40.8815C40.6957 40.8044 40.6493 40.7273 40.6012 40.6501C39.2355 38.4611 36.4586 35.8516 30.9833 35.8516C25.508 35.8516 22.7311 38.4613 21.3656 40.6501C19.9031 42.9946 19.7516 45.3508 19.7459 45.4498C19.7372 45.5989 19.7518 45.7532 19.7885 45.8982L21.2753 51.8142H8.59621C7.59726 51.8142 6.86974 52.8295 7.19346 53.7764C9.51941 60.5759 15.9106 65.1444 23.097 65.1444H29.2046C30.0234 65.1444 30.687 64.4806 30.687 63.662C30.687 62.8433 30.0234 62.1795 29.2046 62.1795H23.097C17.8997 62.1795 13.2073 59.2781 10.8437 54.7789H23.1708C23.1724 54.7789 23.1738 54.7793 23.1753 54.7793C23.1773 54.7793 23.1795 54.7789 23.1816 54.7789H58.3014C58.3034 54.7789 58.3056 54.7793 58.3078 54.7793C58.3093 54.7793 58.3107 54.7789 58.3123 54.7789H77.8169C77.8189 54.7789 77.8211 54.7793 77.8232 54.7793C77.8248 54.7793 77.8262 54.7789 77.8278 54.7789H90.1549C87.7911 59.2779 83.0987 62.1795 77.9016 62.1795H35.1344C34.3155 62.1795 33.6519 62.8433 33.6519 63.662C33.6519 64.4806 34.3155 65.1444 35.1344 65.1444H45.2367V72.4204C43.9892 71.9795 42.506 71.707 40.7407 71.707C35.2653 71.707 32.4884 74.3165 31.123 76.5055C31.0748 76.5827 31.0283 76.6598 30.9831 76.7369C30.9377 76.6598 30.8914 76.5827 30.8432 76.5055C29.4776 74.3165 26.7007 71.707 21.2254 71.707C15.7501 71.707 12.9731 74.3165 11.6077 76.5055C10.1451 78.85 9.99364 81.2062 9.98792 81.3052C9.97924 81.4543 9.99384 81.6086 10.0305 81.7536L11.5173 87.6696H1.48064C0.481688 87.6696 -0.245828 88.6849 0.0778849 89.6318C2.40384 96.4317 8.79506 101 15.9814 101H67.6112C68.43 101 69.0937 100.336 69.0937 99.5175C69.0937 98.6987 68.43 98.0351 67.6112 98.0351H15.9814C10.7841 98.0351 6.09173 95.1337 3.72789 90.6345H97.2701C94.9063 95.1335 90.2139 98.0351 85.0167 98.0351H73.5408C72.722 98.0351 72.0584 98.6989 72.0584 99.5175C72.0584 100.336 72.722 101 73.5408 101H85.0167C92.2031 101 98.5943 96.4317 100.92 89.632C101.075 89.1793 101.002 88.6796 100.724 88.2904ZM37.6349 51.8146H24.3323L23.127 47.0183H38.8404L37.6349 51.8146ZM23.0434 44.0536C23.2276 43.4738 23.5087 42.7966 23.9393 42.1282C25.3551 39.9309 27.7253 38.8167 30.9835 38.8167C34.2417 38.8167 36.6119 39.9309 38.0279 42.1282C38.4587 42.7966 38.7394 43.4738 38.9236 44.0536H23.0434ZM68.113 11.1662L66.9083 15.9592H53.6041L52.3996 11.1662H68.113ZM33.6965 6.2762C35.1123 4.07886 37.4824 2.96471 40.7407 2.96471C43.9991 2.96471 46.369 4.07886 47.785 6.2762C48.2158 6.94454 48.4965 7.62175 48.6808 8.20152H32.8003C32.9848 7.62175 33.2657 6.94454 33.6965 6.2762ZM48.5974 11.1662L47.3928 15.9592H34.0885L32.884 11.1662H48.5974ZM33.7864 26.3245C28.5867 26.3245 23.8894 23.4233 21.5195 18.9239H79.4787C77.1088 23.4231 72.4113 26.3245 67.2117 26.3245H33.7864ZM52.7965 29.2894V36.0207C52.0888 35.9122 51.3251 35.852 50.499 35.852C49.6728 35.852 48.9092 35.9124 48.2014 36.0207V29.2892H52.7965V29.2894ZM57.1504 51.8146H43.8478L42.6425 47.0183H58.3557L57.1504 51.8146ZM42.5589 44.0536C42.7431 43.4738 43.0242 42.7966 43.4548 42.1282C44.8706 39.9309 47.2408 38.8167 50.499 38.8167C53.7572 38.8167 56.1274 39.9309 57.5432 42.1282C57.974 42.7966 58.2549 43.4738 58.4391 44.0536H42.5589ZM76.6659 51.8146H63.3633L62.1578 47.0183H77.8712L76.6659 51.8146ZM62.0523 44.0536C62.6784 42.0411 64.5348 38.8167 70.0147 38.8167C73.2729 38.8167 75.6431 39.9309 77.0588 42.1282C77.4897 42.7966 77.7704 43.4738 77.9548 44.0536H62.0523ZM73.1204 87.67L71.9151 82.8737H87.6285L86.423 87.67H73.1204ZM72.7275 77.9834C74.1433 75.7861 76.5134 74.6719 79.7716 74.6719C83.0301 74.6719 85.4 75.7861 86.816 77.9834C87.2468 78.6518 87.5275 79.329 87.7118 79.9088H71.8313C72.0159 79.3292 72.2969 78.652 72.7275 77.9834ZM53.6049 87.67L52.3996 82.8737H68.113L66.9075 87.67H53.6049ZM34.0893 87.67L32.884 82.8737H48.5974L47.3921 87.67H34.0893ZM60.2561 74.6721C63.5144 74.6721 65.8845 75.7863 67.3005 77.9836C67.7313 78.652 68.012 79.3292 68.1963 79.909H52.316C52.5003 79.3292 52.7812 78.652 53.212 77.9836C54.6278 75.7863 56.9979 74.6721 60.2561 74.6721ZM48.2014 65.1446H52.7965V74.0596C51.8412 74.8305 51.1431 75.6967 50.6385 76.5059C50.5903 76.5831 50.5438 76.6602 50.4986 76.7373C50.4532 76.6602 50.4069 76.5831 50.3587 76.5059C49.8541 75.6971 49.1564 74.8315 48.2016 74.0608L48.2014 65.1446ZM33.6965 77.9834C35.1123 75.7861 37.4824 74.6719 40.7407 74.6719C43.9991 74.6719 46.369 75.7861 47.785 77.9834C48.2158 78.6518 48.4965 79.329 48.6808 79.9088H32.8003C32.9848 79.3292 33.2657 78.652 33.6965 77.9834ZM14.1808 77.9834C15.5966 75.7861 17.9667 74.6719 21.225 74.6719C24.4832 74.6719 26.8533 75.7861 28.2693 77.9834C28.7001 78.6518 28.9809 79.329 29.1651 79.9088H13.2848C13.4693 79.3292 13.7502 78.652 14.1808 77.9834ZM13.3685 82.8737H29.0819L27.8766 87.67H14.5738L13.3685 82.8737Z" fill="#4E4E4E"/>
</svg>
