<svg width="30" height="30" viewBox="0 0 30 30" fill="none" xmlns="http://www.w3.org/2000/svg">
<g clip-path="url(#clip0_208_46)">
<path fill-rule="evenodd" clip-rule="evenodd" d="M14.9999 -0.144226C23.3639 -0.144226 30.1442 6.63608 30.1442 15C30.1442 19.3373 28.3208 23.2487 25.3988 26.0096C24.9005 26.4805 24.37 26.9179 23.8113 27.3183C21.3291 29.0971 18.2868 30.1442 14.9999 30.1442C11.7131 30.1442 8.67085 29.0971 6.18853 27.3183C5.62979 26.9179 5.09942 26.4805 4.60102 26.0096C1.67905 23.2487 -0.144287 19.3373 -0.144287 15C-0.144287 6.63608 6.63602 -0.144226 14.9999 -0.144226ZM14.9999 16.6587C17.1905 16.6587 18.9663 14.8829 18.9663 12.6923C18.9663 10.5018 17.1905 8.72597 14.9999 8.72597C12.8094 8.72597 11.0336 10.5018 11.0336 12.6923C11.0336 14.8829 12.8094 16.6587 14.9999 16.6587ZM14.9999 6.5625C18.3853 6.5625 21.1298 9.30691 21.1298 12.6923C21.1298 14.5923 20.2652 16.29 18.9092 17.414C21.6361 18.5139 23.7931 20.73 24.8137 23.4969C26.7868 21.22 27.9807 18.2494 27.9807 15C27.9807 7.83093 22.1691 2.01924 14.9999 2.01924C7.83087 2.01924 2.01917 7.83093 2.01917 15C2.01917 18.2494 3.21313 21.22 5.18625 23.4969C6.20677 20.73 8.3638 18.5139 11.0907 17.414C9.73471 16.29 8.87014 14.5923 8.87014 12.6923C8.87014 9.30691 11.6145 6.5625 14.9999 6.5625ZM14.9999 27.9808C18.0474 27.9808 20.8497 26.9306 23.0645 25.1725C22.19 21.5296 18.911 18.8221 14.9999 18.8221C11.0889 18.8221 7.80988 21.5296 6.93547 25.1725C9.15025 26.9306 11.9525 27.9808 14.9999 27.9808Z" fill="white"/>
</g>
<defs>
<clipPath id="clip0_208_46">
<rect width="30" height="30" fill="white"/>
</clipPath>
</defs>
</svg>
