<svg width="51" height="28" viewBox="0 0 51 28" fill="none" xmlns="http://www.w3.org/2000/svg">
<path d="M49.509 27.7727C49.9473 27.7727 50.3635 27.5798 50.6467 27.2452C50.9301 26.9106 51.0518 26.4685 50.9796 26.036L46.8457 1.27881C46.753 0.605763 46.1276 -0.018183 45.3696 0.000405122H5.45741C4.72492 0.000405122 4.10087 0.532603 3.98507 1.25585L0.0187395 26.0461C-0.0502453 26.4772 0.0732117 26.9169 0.356407 27.2491C0.639802 27.5814 1.05431 27.7728 1.49098 27.7728L49.509 27.7727ZM6.72895 2.98246H43.6219L40.1424 24.7906H3.23956L6.72895 2.98246ZM43.1621 24.7906L45.4031 10.7449L47.7485 24.7906H43.1621Z" fill="white"/>
<path d="M36.877 9.42267H10.816C9.99253 9.42267 9.32495 10.0903 9.32495 10.9137C9.32495 11.7371 9.99253 12.4047 10.816 12.4047H36.8771C37.7006 12.4047 38.3682 11.7371 38.3682 10.9137C38.3682 10.0903 37.7006 9.42267 36.877 9.42267Z" fill="white"/>
<path d="M35.7914 15.5752H9.76764C8.94419 15.5752 8.27661 16.2428 8.27661 17.0662C8.27661 17.8897 8.94419 18.5572 9.76764 18.5572H35.7914C36.6149 18.5572 37.2824 17.8897 37.2824 17.0662C37.2824 16.2428 36.6149 15.5752 35.7914 15.5752Z" fill="white"/>
</svg>
