<svg width="93" height="101" viewBox="0 0 93 101" fill="none" xmlns="http://www.w3.org/2000/svg">
<path d="M90.7236 5.91797H89.2442V1.47949C89.2442 0.662418 88.5817 0 87.7647 0C86.9476 0 86.2852 0.662418 86.2852 1.47949V5.91797H84.8057C83.9886 5.91797 83.3262 6.58039 83.3262 7.39746V30.9206C83.3262 32.8495 84.5632 34.4939 86.2852 35.1046V89.1641C86.2852 90.7956 84.9578 92.123 83.3262 92.123C81.6946 92.123 80.3672 90.7956 80.3672 89.1641V47.5483C80.3806 46.5411 80.1912 45.5565 79.8042 44.6223C78.2434 40.8537 73.9073 39.0582 70.139 40.6188L66.0384 42.3172L65.4723 40.9504C65.3221 40.5878 65.0341 40.2998 64.6716 40.1497C64.309 39.9996 63.9018 39.9996 63.5393 40.1497L58.0722 42.4143C58.0714 42.4147 53.0426 44.4976 53.0426 44.4976C52.2896 43.8164 51.436 43.2452 50.5077 42.807C51.4467 41.759 52.0193 40.3759 52.0193 38.8613C52.0193 37.3645 51.4595 35.9964 50.5398 34.9533V23.6719H54.9783C59.0574 23.6719 62.3758 20.3535 62.3758 16.2744C62.3758 15.4573 61.7134 14.7949 60.8963 14.7949H31.3064C30.4894 14.7949 29.827 15.4573 29.827 16.2744C29.827 20.3535 33.1454 23.6719 37.2244 23.6719H41.6629V28.9345C41.6629 29.7516 42.3253 30.414 43.1424 30.414C43.9595 30.414 44.6219 29.7516 44.6219 28.9345V23.6719H47.5809V33.1306C47.1078 33.0085 46.6121 32.9434 46.1014 32.9434C42.8382 32.9434 40.1834 35.5982 40.1834 38.8613C40.1834 40.3759 40.7561 41.759 41.6954 42.8068C40.7671 43.2452 39.9133 43.8162 39.1606 44.4974L34.1317 42.4143C34.1309 42.4139 28.6639 40.1495 28.6639 40.1495C28.3013 39.9994 27.8941 39.9994 27.5316 40.1495C27.169 40.2996 26.881 40.5876 26.7309 40.9502L26.1647 42.317L22.0642 40.6186C20.2387 39.8623 18.2277 39.8623 16.4024 40.6186C14.5769 41.3747 13.1551 42.7966 12.3989 44.6221C12.0119 45.5565 11.8225 46.5411 11.8359 47.5481V89.1641C11.8359 90.7956 10.5085 92.123 8.87695 92.123C7.24537 92.123 5.91797 90.7956 5.91797 89.1641V35.1046C7.6399 34.4939 8.87695 32.8495 8.87695 30.9206V7.39746C8.87695 6.58039 8.21453 5.91797 7.39746 5.91797H5.91797V1.47949C5.91797 0.662418 5.25555 0 4.43848 0C3.6214 0 2.95898 0.662418 2.95898 1.47949V5.91797H1.47949C0.662418 5.91797 0 6.58039 0 7.39746V30.9206C0 32.8495 1.23705 34.4939 2.95898 35.1046V89.1641C2.95898 92.4272 5.61378 95.082 8.87695 95.082C12.1401 95.082 14.7949 92.4272 14.7949 89.1641V47.5379C14.7949 47.5306 14.7949 47.5233 14.7947 47.5158C14.7858 46.9104 14.8995 46.3176 15.1326 45.7544C15.5864 44.659 16.4395 43.806 17.5347 43.3523C18.63 42.8986 19.8364 42.8988 20.9319 43.3523L25.0324 45.0507L24.4663 46.4176C24.1536 47.1725 24.512 48.0379 25.267 48.3506L35.7585 52.6964C35.9173 55.8938 37.5337 58.7135 39.9548 60.5051C31.5252 63.1301 25.3885 71.0056 25.3885 80.2871C25.3885 85.4705 28.0701 90.0366 32.1164 92.6797C30.7523 93.4378 29.827 94.8934 29.827 96.5615C29.827 99.009 31.818 101 34.2654 101H57.9373C60.3848 101 62.3758 99.009 62.3758 96.5615C62.3758 94.8934 61.4504 93.4378 60.0863 92.6797C64.1326 90.0366 66.8143 85.4705 66.8143 80.2871C66.8143 71.0056 60.6775 63.1301 52.2486 60.5053C54.6696 58.7137 56.2858 55.894 56.4448 52.6966L66.9364 48.351C67.6913 48.0383 68.0497 47.1727 67.7371 46.418L67.1709 45.0511L71.2715 43.3527C73.5327 42.4159 76.1339 43.4937 77.0707 45.7548C77.3041 46.3178 77.4177 46.9106 77.4086 47.516C77.4086 47.5235 77.4084 47.5308 77.4084 47.5381V89.1641C77.4084 92.4272 80.0632 95.082 83.3264 95.082C86.5895 95.082 89.2443 92.4272 89.2443 89.1641V35.1046C90.9663 34.4939 92.2033 32.8495 92.2033 30.9206V7.39746C92.2031 6.58039 91.5407 5.91797 90.7236 5.91797ZM33.0394 17.7539H59.1633C58.5528 19.476 56.9072 20.7129 54.9783 20.7129H37.2244C35.2956 20.7129 33.65 19.476 33.0394 17.7539ZM4.43808 32.4001C3.62219 32.4001 2.95859 31.7365 2.95859 30.9206V14.7949H5.91757V30.9206C5.91757 31.7365 5.25397 32.4001 4.43808 32.4001ZM5.91757 8.87695V11.8359H2.95859V8.87695H5.91757ZM55.0014 46.8889L57.8371 45.7143L58.9694 48.448L56.138 49.6208C55.8901 48.6479 55.5032 47.7304 55.0014 46.8889ZM43.1424 38.8613C43.1424 37.2297 44.4698 35.9023 46.1014 35.9023C47.733 35.9023 49.0604 37.2297 49.0604 38.8613C49.0604 40.4929 47.733 41.8203 46.1014 41.8203C44.4698 41.8203 43.1424 40.4929 43.1424 38.8613ZM36.0647 49.6208L33.2333 48.448L34.3656 45.7143L37.2013 46.8889C36.6995 47.7304 36.3127 48.6481 36.0647 49.6208ZM28.8982 43.4495L31.6319 44.5818L30.4996 47.3155L27.7659 46.1832L28.8982 43.4495ZM63.8553 80.2871C63.8553 86.8134 58.5457 92.123 52.0193 92.123H49.0604C48.2433 92.123 47.5809 92.7855 47.5809 93.6025C47.5809 94.4196 48.2433 95.082 49.0604 95.082H57.9373C58.7532 95.082 59.4168 95.7456 59.4168 96.5615C59.4168 97.3774 58.7532 98.041 57.9373 98.041H34.2654C33.4495 98.041 32.7859 97.3774 32.7859 96.5615C32.7859 95.7456 33.4495 95.082 34.2654 95.082H43.1424C43.9595 95.082 44.6219 94.4196 44.6219 93.6025C44.6219 92.7855 43.9595 92.123 43.1424 92.123H40.1834C33.6571 92.123 28.3475 86.8134 28.3475 80.2871C28.3475 70.4976 36.3119 62.5332 46.1014 62.5332C55.8909 62.5332 63.8553 70.4976 63.8553 80.2871ZM46.1014 59.5742C42.0223 59.5742 38.7039 56.2558 38.7039 52.1768C38.7039 48.0977 42.0223 44.7793 46.1014 44.7793C50.1804 44.7793 53.4988 48.0977 53.4988 52.1768C53.4988 56.2558 50.1804 59.5742 46.1014 59.5742ZM61.7031 47.3157L60.5708 44.582L63.3045 43.4497L64.4368 46.1834L61.7031 47.3157ZM89.2442 8.87695V11.8359H86.2852V8.87695H89.2442ZM87.7647 32.4001C86.9488 32.4001 86.2852 31.7365 86.2852 30.9206V14.7949H89.2442V30.9206C89.2442 31.7365 88.5806 32.4001 87.7647 32.4001Z" fill="#4E4E4E"/>
</svg>
