<svg width="24" height="24" viewBox="0 0 24 24" fill="none" xmlns="http://www.w3.org/2000/svg">
<g clip-path="url(#clip0_27_97)">
<path d="M12.2362 24.0001C12.1567 24.0001 12.0773 24.0001 11.9973 23.9997C10.116 24.0043 8.37781 23.9565 6.68738 23.8536C5.13757 23.7593 3.7229 23.2237 2.59607 22.3049C1.50879 21.4183 0.766296 20.2195 0.389282 18.7422C0.0611573 17.456 0.0437622 16.1935 0.0270996 14.9724C0.0150146 14.0962 0.00256348 13.058 0 12.0022C0.00256348 10.9421 0.0150146 9.90386 0.0270996 9.0277C0.0437622 7.80676 0.0611573 6.54424 0.389282 5.25793C0.766296 3.78063 1.50879 2.58184 2.59607 1.69524C3.7229 0.776422 5.13757 0.240838 6.68756 0.146539C8.37799 0.0438169 10.1166 -0.00415669 12.0018 0.000420951C13.8836 -0.00360737 15.6213 0.0438169 17.3117 0.146539C18.8615 0.240838 20.2762 0.776422 21.403 1.69524C22.4905 2.58184 23.2328 3.78063 23.6098 5.25793C23.9379 6.54406 23.9553 7.80676 23.972 9.0277C23.9841 9.90386 23.9967 10.9421 23.9991 11.9979V12.0022C23.9967 13.058 23.9841 14.0962 23.972 14.9724C23.9553 16.1933 23.9381 17.4559 23.6098 18.7422C23.2328 20.2195 22.4905 21.4183 21.403 22.3049C20.2762 23.2237 18.8615 23.7593 17.3117 23.8536C15.6929 23.9521 14.0299 24.0001 12.2362 24.0001ZM11.9973 22.1247C13.8479 22.1291 15.5471 22.0824 17.1978 21.982C18.3697 21.9108 19.3857 21.5305 20.2181 20.8517C20.9875 20.2242 21.5175 19.3585 21.793 18.2786C22.0662 17.2079 22.082 16.0584 22.0972 14.9468C22.1091 14.0765 22.1215 13.0456 22.1241 12.0001C22.1215 10.9543 22.1091 9.92364 22.0972 9.05334C22.082 7.9417 22.0662 6.79217 21.793 5.72137C21.5175 4.64141 20.9875 3.77569 20.2181 3.14819C19.3857 2.4696 18.3697 2.08929 17.1978 2.01806C15.5471 1.91753 13.8479 1.87121 12.0016 1.87524C10.1514 1.87084 8.45197 1.91753 6.80127 2.01806C5.62939 2.08929 4.61334 2.4696 3.78094 3.14819C3.01154 3.77569 2.48163 4.64141 2.20605 5.72137C1.93286 6.79217 1.91711 7.94152 1.90192 9.05334C1.89001 9.92437 1.87756 10.9558 1.875 12.0022C1.87756 13.0441 1.89001 14.0757 1.90192 14.9468C1.91711 16.0584 1.93286 17.2079 2.20605 18.2786C2.48163 19.3585 3.01154 20.2242 3.78094 20.8517C4.61334 21.5303 5.62939 21.9106 6.80127 21.9819C8.45197 22.0824 10.1517 22.1293 11.9973 22.1247ZM11.9526 17.8594C8.72186 17.8594 6.0932 15.2309 6.0932 12.0001C6.0932 8.76916 8.72186 6.14068 11.9526 6.14068C15.1835 6.14068 17.812 8.76916 17.812 12.0001C17.812 15.2309 15.1835 17.8594 11.9526 17.8594ZM11.9526 8.01568C9.75568 8.01568 7.9682 9.80315 7.9682 12.0001C7.9682 14.197 9.75568 15.9844 11.9526 15.9844C14.1497 15.9844 15.937 14.197 15.937 12.0001C15.937 9.80315 14.1497 8.01568 11.9526 8.01568ZM18.4682 4.26568C17.6917 4.26568 17.062 4.8952 17.062 5.67193C17.062 6.44866 17.6917 7.07818 18.4682 7.07818C19.2449 7.07818 19.8745 6.44866 19.8745 5.67193C19.8745 4.8952 19.2449 4.26568 18.4682 4.26568Z" fill="#C69A5B"/>
</g>
<defs>
<clipPath id="clip0_27_97">
<rect width="24" height="24" fill="white"/>
</clipPath>
</defs>
</svg>
