<svg width="22" height="26" viewBox="0 0 22 26" fill="none" xmlns="http://www.w3.org/2000/svg">
<path d="M15.3287 0.0311985C14.6936 0.114693 13.8974 0.445687 13.1549 0.943671C11.8398 1.82036 11.0854 2.82527 10.6441 4.28046C10.4562 4.9007 10.4204 5.1482 10.4413 5.64618C10.4562 5.98314 10.4711 6.09944 10.5069 6.14417C10.5487 6.19486 10.6113 6.20381 10.987 6.21872C11.4045 6.23661 11.4313 6.23363 11.7683 6.14417C12.7464 5.88474 13.3875 5.5448 13.9242 4.99314C14.7532 4.14627 15.0156 3.79738 15.3227 3.15329C15.7193 2.32729 15.9072 1.45955 15.9072 0.451651C15.9072 -0.0224767 15.8863 -0.0403676 15.3287 0.0311985Z" fill="black"/>
<path d="M15.0424 6.19192C14.4997 6.23366 12.952 6.65113 12.0903 6.98213C10.984 7.41153 11.0138 7.3996 10.7931 7.3996C10.5397 7.3996 10.0447 7.24752 9.09342 6.8718C8.75049 6.73761 8.34197 6.59746 8.18989 6.56168C8.03781 6.52589 7.7426 6.44836 7.53386 6.39171C7.29531 6.32611 7.02395 6.27541 6.79434 6.25454C6.46335 6.22472 6.40967 6.2277 6.12341 6.28734C5.95344 6.32312 5.59262 6.39469 5.32127 6.4424C4.74277 6.54677 4.42072 6.65113 3.96448 6.8718C2.50632 7.58448 1.48948 8.70271 0.743993 10.4203C0.562095 10.8348 0.296703 11.6041 0.192335 12.0097C-0.0641116 13.0235 -0.0641116 14.9648 0.192335 16.1456C0.225136 16.2917 0.251974 16.4736 0.251974 16.5482C0.251974 16.6257 0.278811 16.7927 0.314594 16.9239C0.347396 17.0521 0.460709 17.4964 0.562095 17.905C0.735047 18.5819 0.788722 18.7429 1.14357 19.6345C1.63261 20.8571 1.8652 21.3282 2.30653 21.9992C2.71505 22.6164 3.50228 23.7168 3.82433 24.1223C4.14042 24.5189 4.72488 25.1123 5.00816 25.321C5.33021 25.5626 5.88783 25.8339 6.25759 25.9264C6.70787 26.0397 7.10148 26.0248 7.7426 25.8638C8.10938 25.7713 8.34495 25.6878 8.95923 25.4284C9.31706 25.2763 9.54369 25.1988 9.79417 25.1481C9.98203 25.1093 10.2981 25.0437 10.4949 25.002C10.9064 24.9185 11.151 24.9095 11.4521 24.9722C11.5684 24.996 11.795 25.0288 11.9591 25.0467C12.3318 25.0855 12.5346 25.1481 13.2234 25.4194C14.2492 25.828 14.7621 25.9532 15.4151 25.9532C15.9906 25.9562 16.3246 25.8608 16.8852 25.5328C17.58 25.1242 18.3732 24.3281 19.1217 23.2784C19.9685 22.0886 20.8482 20.4158 21.0808 19.548C21.1196 19.4049 21.1732 19.2528 21.2001 19.214C21.3194 19.0321 21.1971 18.9009 20.6514 18.6236C19.7181 18.1495 18.8771 17.2788 18.3732 16.2649C18.0482 15.6119 17.9766 15.3673 17.8484 14.4608C17.7231 13.5841 17.7947 12.9251 18.1317 11.9023C18.3672 11.1837 18.5939 10.7692 18.9905 10.3338C19.5153 9.75533 19.891 9.41539 20.2309 9.2156C20.5351 9.0337 20.6037 8.9353 20.5262 8.7862C20.4635 8.66692 19.9685 8.09141 19.7777 7.91249C18.7758 6.98809 17.5532 6.40364 16.2948 6.25156C15.9012 6.20384 15.269 6.17104 15.0424 6.19192Z" fill="black"/>
</svg>
