<svg width="18" height="23" viewBox="0 0 18 23" fill="none" xmlns="http://www.w3.org/2000/svg">
<path d="M9.9865 22.9999H8.01995C1.35803 22.9999 0.762303 19.9905 0.743086 19.8388C-0.153711 17.1392 -0.448373 13.4534 1.06337 11.8982C2.03172 11.1504 3.09568 10.5318 4.22778 10.0584C4.74519 9.82682 5.246 9.56067 5.72672 9.26182C5.85311 9.15457 5.95459 9.02168 6.02424 8.87221C6.09388 8.72274 6.13005 8.56021 6.13027 8.39569C5.60923 7.84223 5.17717 7.21326 4.84914 6.53065C4.534 5.78808 4.40861 4.98045 4.48401 4.17881V3.64143C4.44044 3.22364 4.49718 2.80159 4.64965 2.40947C4.80211 2.01735 5.04601 1.66619 5.36159 1.38442C5.84535 0.927903 6.41595 0.570501 7.04045 0.332858C7.66495 0.0952144 8.33096 -0.0179607 9.00003 -0.000131133C9.66909 -0.0179607 10.3351 0.0952144 10.9596 0.332858C11.5841 0.570501 12.1547 0.927903 12.6385 1.38442C12.9526 1.6668 13.1946 2.01843 13.3449 2.41065C13.4952 2.80287 13.5494 3.22459 13.5032 3.64143V4.17881C13.576 4.97759 13.462 5.78219 13.1701 6.53065C12.8177 7.2273 12.3598 7.86686 11.8121 8.4273C11.8647 8.74331 12.0198 9.03393 12.2541 9.2555C12.7395 9.55013 13.2422 9.81613 13.7595 10.0521C14.8902 10.5349 15.9519 11.1619 16.9175 11.9171C18.442 13.4724 18.1281 17.1645 17.2185 19.9336C17.2313 19.9905 16.6548 22.9999 9.9865 22.9999ZM9.00003 1.07464C7.94764 1.04925 6.92534 1.42252 6.14309 2.11779C5.9278 2.30931 5.76371 2.55029 5.66538 2.81938C5.56705 3.08847 5.53751 3.37734 5.57939 3.6604V4.21042C5.50938 4.85324 5.595 5.50328 5.82921 6.10707C6.11746 6.65658 6.47707 7.16665 6.89896 7.62439C7.00977 7.72801 7.09682 7.85384 7.15427 7.99341C7.21172 8.13299 7.23825 8.28309 7.23205 8.43362C7.21753 8.73933 7.14087 9.03903 7.00661 9.3149C6.87236 9.59077 6.68326 9.83717 6.45056 10.0395C5.9077 10.419 5.32585 10.7411 4.71462 11.0004C3.70116 11.4453 2.73906 11.9964 1.84487 12.6442C0.717463 13.8138 0.973691 17.0697 1.79362 19.5985C1.79362 19.6871 2.37013 21.9061 8.01995 21.9061H9.9865C15.6299 21.9061 16.1808 19.6871 16.1936 19.6618C17.0328 17.1139 17.2954 13.8327 16.1552 12.6442C15.2634 11.9928 14.3009 11.4415 13.2854 11.0004C12.6707 10.7436 12.0828 10.4281 11.5303 10.0584C11.3005 9.85458 11.1141 9.60758 10.9822 9.33187C10.8502 9.05615 10.7752 8.75723 10.7616 8.45259C10.7524 8.30135 10.7768 8.14995 10.8333 8.00904C10.8897 7.86814 10.9768 7.74116 11.0883 7.63703C11.5178 7.18484 11.882 6.67639 12.1708 6.12604C12.4042 5.522 12.4919 4.87266 12.4271 4.22939V3.67936C12.4697 3.39515 12.4393 3.10491 12.3386 2.83535C12.2378 2.56578 12.07 2.32555 11.8506 2.13676C11.0771 1.42928 10.0542 1.04813 9.00003 1.07464Z" fill="white"/>
</svg>
