<svg width="24" height="24" viewBox="0 0 24 24" fill="none" xmlns="http://www.w3.org/2000/svg">
<g clip-path="url(#clip0_27_73)">
<path d="M11.7391 21.3009C11.8375 21.3009 11.9307 21.2562 11.9921 21.1795L12.1042 21.0397C14.3618 18.227 19.6485 11.64 19.6485 7.90955C19.6485 3.54825 16.1004 0 11.7391 0C7.37787 0 3.82967 3.54825 3.82967 7.9095C3.82967 11.2123 7.92153 16.7362 11.4861 21.1794C11.5476 21.2562 11.6407 21.3009 11.7391 21.3009ZM11.7391 0.648656C15.7427 0.648656 18.9999 3.90581 18.9999 7.90955C18.9999 11.3397 14.025 17.6089 11.7393 20.4582C9.52353 17.6914 4.47833 11.2727 4.47833 7.90955C4.47833 3.90581 7.73553 0.648656 11.7391 0.648656ZM16.5681 7.90036C16.5681 5.23767 14.4019 3.07139 11.7391 3.07139C9.07653 3.07139 6.91034 5.23767 6.91034 7.90036C6.91034 10.563 9.07653 12.7292 11.7391 12.7292C14.4019 12.7292 16.5681 10.563 16.5681 7.90036ZM11.7391 12.0805C9.43423 12.0805 7.559 10.2053 7.559 7.90031C7.559 5.59533 9.43423 3.72 11.7391 3.72C14.0442 3.72 15.9194 5.59533 15.9194 7.90031C15.9194 10.2053 14.0442 12.0805 11.7391 12.0805ZM21.9133 20.6515C21.9133 22.8264 16.8058 24 12.0001 24C7.19431 24 2.08667 22.8264 2.08667 20.6515C2.08667 19.3344 4.10886 18.2132 7.49586 17.6523C7.67155 17.6237 7.83959 17.7425 7.86875 17.9193C7.89809 18.096 7.77861 18.263 7.60184 18.2923C4.24015 18.849 2.73528 19.8784 2.73528 20.6515C2.73528 21.9285 6.54017 23.3513 12.0001 23.3513C17.4597 23.3513 21.2646 21.9285 21.2646 20.6515C21.2646 19.852 19.6002 18.7506 15.9456 18.2221C15.7685 18.1965 15.6454 18.032 15.6711 17.8547C15.6965 17.6774 15.8599 17.554 16.0385 17.5802C19.7172 18.1122 21.9133 19.2603 21.9133 20.6515Z" fill="#C69A5B"/>
</g>
<defs>
<clipPath id="clip0_27_73">
<rect width="24" height="24" fill="white"/>
</clipPath>
</defs>
</svg>
