<svg width="17" height="24" viewBox="0 0 17 24" fill="none" xmlns="http://www.w3.org/2000/svg">
<g clip-path="url(#clip0)">
<path d="M13.3925 10.4009C13.2548 10.4009 13.1228 10.3461 13.0254 10.2486C12.9281 10.151 12.8734 10.0187 12.8734 9.88082V3.40628C12.9772 2.10618 10.9009 1.04009 8.51309 1.04009C6.1253 1.04009 4.10087 2.10618 4.10087 3.40628V9.77682C4.1182 9.85297 4.11818 9.93207 4.10081 10.0082C4.08344 10.0844 4.04917 10.1556 4.00055 10.2167C3.95193 10.2777 3.8902 10.327 3.81995 10.3609C3.7497 10.3948 3.67274 10.4124 3.59477 10.4124C3.5168 10.4124 3.43983 10.3948 3.36958 10.3609C3.29933 10.327 3.23761 10.2777 3.18898 10.2167C3.14036 10.1556 3.10609 10.0844 3.08873 10.0082C3.07136 9.93207 3.07134 9.85297 3.08866 9.77682V3.40628C3.08866 1.50813 5.47645 0 8.51309 0C11.5497 0 13.9116 1.50813 13.9116 3.40628V9.77682C13.9272 9.85325 13.9254 9.93222 13.9064 10.0079C13.8874 10.0835 13.8516 10.1539 13.8018 10.2139C13.7519 10.2738 13.6892 10.3217 13.6184 10.3541C13.5475 10.3865 13.4703 10.4024 13.3925 10.4009Z" fill="white"/>
<path d="M8.51298 24.0001C6.2775 24.0003 4.13163 23.1196 2.53881 21.5482C0.945999 19.9768 0.0340774 17.8407 0 15.6014L0 10.791C0.00667972 10.3862 0.170157 9.99984 0.455896 9.71357C0.741635 9.42731 1.12726 9.26353 1.5313 9.25684H15.5725C15.9786 9.25684 16.3681 9.41847 16.6553 9.70617C16.9425 9.99388 17.1038 10.3841 17.1038 10.791V15.6014C17.0696 17.8543 16.147 20.0021 14.5373 21.5757C12.9277 23.1494 10.7619 24.0209 8.51298 24.0001ZM1.5313 10.4009C1.46439 10.3974 1.39746 10.4076 1.33461 10.4308C1.27175 10.454 1.21428 10.4899 1.1657 10.5361C1.11712 10.5823 1.07846 10.638 1.05207 10.6997C1.02568 10.7614 1.01212 10.8278 1.01221 10.895V15.6014C1.12469 17.5146 1.96257 19.3124 3.35445 20.6272C4.74633 21.9419 6.58702 22.6741 8.5 22.6741C10.413 22.6741 12.2537 21.9419 13.6456 20.6272C15.0374 19.3124 15.8753 17.5146 15.9878 15.6014V10.791C15.9673 10.6909 15.9164 10.5997 15.842 10.5299C15.7676 10.46 15.6735 10.415 15.5725 10.4009H1.5313Z" fill="white"/>
<path d="M7.42285 16.6417C7.44997 16.3473 7.57843 16.0716 7.78621 15.8617C7.97671 15.6863 8.22838 15.5929 8.48697 15.6016C8.63089 15.5996 8.7738 15.6261 8.90744 15.6796C9.04107 15.7332 9.1628 15.8127 9.2656 15.9137C9.4644 16.1247 9.57573 16.4035 9.57705 16.6937C9.58174 16.8344 9.55637 16.9744 9.50266 17.1045C9.44895 17.2345 9.36812 17.3516 9.2656 17.4478C9.1628 17.5487 9.04107 17.6283 8.90744 17.6818C8.7738 17.7354 8.63089 17.7619 8.48697 17.7598C8.35144 17.7508 8.21924 17.7137 8.09865 17.6511C7.97807 17.5885 7.8717 17.5015 7.78621 17.3958C7.57217 17.2011 7.44191 16.9307 7.42285 16.6417Z" fill="white"/>
<path d="M8.51323 19.2158C8.44632 19.2194 8.37939 19.2092 8.31653 19.186C8.25368 19.1627 8.1962 19.1269 8.14763 19.0807C8.09905 19.0344 8.06039 18.9788 8.034 18.9171C8.00761 18.8554 7.99405 18.7889 7.99414 18.7218V16.6416C7.99414 16.5037 8.04883 16.3714 8.14618 16.2739C8.24352 16.1764 8.37556 16.1216 8.51323 16.1216C8.58023 16.1215 8.64655 16.1351 8.70813 16.1615C8.76972 16.188 8.82528 16.2267 8.87143 16.2754C8.91758 16.324 8.95334 16.3816 8.97654 16.4446C8.99974 16.5075 9.00988 16.5746 9.00636 16.6416V18.7218C9.01012 18.7877 8.99995 18.8536 8.9765 18.9152C8.95305 18.9769 8.91685 19.0329 8.87029 19.0795C8.82372 19.1262 8.76784 19.1624 8.7063 19.1859C8.64477 19.2094 8.57897 19.2196 8.51323 19.2158Z" fill="white"/>
</g>
<defs>
<clipPath id="clip0">
<rect width="17" height="24" fill="white"/>
</clipPath>
</defs>
</svg>
