<svg width="35" height="35" viewBox="0 0 35 35" fill="none" xmlns="http://www.w3.org/2000/svg">
<g clip-path="url(#clip0_208_46)">
<path fill-rule="evenodd" clip-rule="evenodd" d="M17.5001 -0.168274C27.258 -0.168274 35.1683 7.74208 35.1683 17.5C35.1683 22.5602 33.0411 27.1235 29.6321 30.3445C29.0507 30.8939 28.4318 31.4043 27.78 31.8714C24.884 33.9466 21.3347 35.1683 17.5001 35.1683C13.6654 35.1683 10.1161 33.9466 7.22007 31.8714C6.56821 31.4043 5.94945 30.8939 5.36798 30.3445C1.95901 27.1235 -0.168213 22.5602 -0.168213 17.5C-0.168213 7.74208 7.74214 -0.168274 17.5001 -0.168274ZM17.5001 19.4351C20.0557 19.4351 22.1275 17.3634 22.1275 14.8077C22.1275 12.252 20.0557 10.1803 17.5001 10.1803C14.9444 10.1803 12.8727 12.252 12.8727 14.8077C12.8727 17.3634 14.9444 19.4351 17.5001 19.4351ZM17.5001 7.65625C21.4497 7.65625 24.6515 10.8581 24.6515 14.8077C24.6515 17.0243 23.6429 19.005 22.0608 20.3163C25.2423 21.5995 27.7588 24.185 28.9494 27.4131C31.2514 24.7566 32.6443 21.2909 32.6443 17.5C32.6443 9.13607 25.864 2.35576 17.5001 2.35576C9.13613 2.35576 2.35583 9.13607 2.35583 17.5C2.35583 21.2909 3.74878 24.7566 6.05075 27.4131C7.24135 24.185 9.75789 21.5995 12.9393 20.3163C11.3573 19.005 10.3486 17.0243 10.3486 14.8077C10.3486 10.8581 13.5504 7.65625 17.5001 7.65625ZM17.5001 32.6442C21.0554 32.6442 24.3247 31.4191 26.9087 29.3679C25.8884 25.1179 22.063 21.9591 17.5001 21.9591C12.9372 21.9591 9.11165 25.1179 8.0915 29.3679C10.6754 31.4191 13.9447 32.6442 17.5001 32.6442Z" fill="white"/>
</g>
<defs>
<clipPath id="clip0_208_46">
<rect width="35" height="35" fill="white"/>
</clipPath>
</defs>
</svg>
