<svg width="30" height="30" viewBox="0 0 30 30" fill="none" xmlns="http://www.w3.org/2000/svg">
<g clip-path="url(#clip0_8_98)">
<path d="M15 0C6.71473 0 0 6.71473 0 15C0 23.2853 6.71473 30 15 30C23.2853 30 30 23.2853 30 15C30 6.71473 23.2453 0 15 0ZM15 28.5458C7.53997 28.5458 1.45419 22.46 1.45419 15C1.45419 7.53997 7.50002 1.45419 15 1.45419C22.5 1.45419 28.5458 7.53997 28.5458 15C28.5458 22.46 22.46 28.5458 15 28.5458ZM15.6289 22.2637C15.6289 22.6963 15.2763 23.0489 14.8437 23.0489C14.4111 23.0489 14.0584 22.6963 14.0584 22.2637C14.0584 21.831 14.4111 21.4784 14.8437 21.4784C15.2727 21.4784 15.6289 21.8311 15.6289 22.2637ZM18.8863 11.5827C18.8863 12.9569 18.1011 14.2148 16.6469 15.0764C15.5854 15.7053 15.6253 16.4506 15.6253 16.4906C15.6253 16.4906 15.6253 16.5306 15.6253 16.5705V18.3774C15.6253 18.77 15.3127 19.0827 14.92 19.0827C14.5274 19.0827 14.1748 18.77 14.1748 18.3774V16.6105C14.1348 15.9816 14.451 14.7637 15.8616 13.9021C16.5669 13.4694 17.3922 12.7242 17.3922 11.6263C17.3922 10.2921 16.2943 9.19051 14.9564 9.19051C13.6185 9.19051 12.5206 10.2884 12.5206 11.6263C12.5206 12.0189 12.2079 12.3316 11.8153 12.3316C11.4226 12.3316 11.11 12.0189 11.11 11.6263C11.11 9.4668 12.8368 7.73995 14.9963 7.73995C17.1558 7.73995 18.8863 9.42317 18.8863 11.5827Z" fill="white"/>
</g>
<defs>
<clipPath id="clip0_8_98">
<rect width="30" height="30" fill="white"/>
</clipPath>
</defs>
</svg>
