<svg width="40" height="40" viewBox="0 0 40 40" fill="none" xmlns="http://www.w3.org/2000/svg">
<path fill-rule="evenodd" clip-rule="evenodd" d="M25.0105 5.96879C25.0089 5.27806 24.7619 4.61038 24.3135 4.08499C23.865 3.55961 23.2445 3.21073 22.5626 3.10066C22.556 3.09782 22.5488 3.09662 22.5417 3.09717C20.8547 2.85244 19.1409 2.85594 17.4549 3.10755C17.4489 3.107 17.4429 3.10825 17.4376 3.11115C16.7609 3.22084 16.1448 3.56658 15.6987 4.08709C15.2525 4.60759 15.005 5.26925 15.0001 5.9548C14.9862 6.5659 14.9862 7.28125 14.9828 7.86448C14.9826 7.94511 14.9588 8.02392 14.9144 8.0912C14.87 8.15848 14.8068 8.21128 14.7327 8.24309C13.9299 8.59534 13.1674 9.03302 12.4584 9.54856C12.4549 9.54856 12.4514 9.55205 12.448 9.55545C12.384 9.6016 12.3081 9.62843 12.2293 9.63275C12.1505 9.63707 12.0722 9.6187 12.0035 9.57982C11.9966 9.57632 11.9932 9.57293 11.9862 9.57293C11.4862 9.2951 10.8785 8.94446 10.3543 8.64575C9.75515 8.30254 9.05374 8.18293 8.37475 8.30817C7.69575 8.43341 7.08317 8.79539 6.64593 9.32975C6.63899 9.33674 6.63549 9.34374 6.63205 9.34712C5.57529 10.6859 4.72122 12.1729 4.09727 13.7603C4.09727 13.7638 4.09383 13.7673 4.09383 13.7743C3.85077 14.4154 3.84222 15.1219 4.0697 15.7687C4.29717 16.4156 4.74602 16.9611 5.33689 17.309C5.8612 17.6249 6.47923 17.9826 6.98272 18.2778C7.05294 18.3177 7.10962 18.3777 7.14551 18.4501C7.1814 18.5225 7.19486 18.6039 7.18416 18.684C7.08805 19.5551 7.08571 20.4339 7.17716 21.3055V21.3194C7.18623 21.3979 7.17196 21.4773 7.13614 21.5477C7.10032 21.6181 7.04454 21.6764 6.97578 21.7152C6.97181 21.7195 6.96708 21.723 6.96185 21.7256C6.47229 22.0208 5.86464 22.375 5.34383 22.6771C4.74665 23.0235 4.29204 23.5709 4.06116 24.2215C3.83028 24.8722 3.83816 25.5837 4.08339 26.2291C4.08689 26.2361 4.08689 26.2464 4.09038 26.2534C4.72195 27.8365 5.58176 29.3186 6.64247 30.6527L6.65285 30.6632C7.08665 31.1946 7.6944 31.5554 8.3686 31.6819C9.0428 31.8083 9.74 31.6922 10.3368 31.3541C10.8751 31.0555 11.4931 30.7014 11.9966 30.4132C12.0666 30.3725 12.1469 30.3532 12.2276 30.3575C12.3084 30.3618 12.3862 30.3896 12.4515 30.4374C13.1577 30.9573 13.9179 31.3997 14.7188 31.757L14.7292 31.7639C14.8018 31.7953 14.8638 31.8471 14.9076 31.9131C14.9513 31.979 14.975 32.0562 14.9758 32.1354V32.1528C14.9862 32.7257 14.9862 33.4271 14.9897 34.0312C14.9912 34.7219 15.2383 35.3896 15.6867 35.915C16.1351 36.4403 16.7557 36.7892 17.4376 36.8993C17.4441 36.9021 17.4513 36.9032 17.4584 36.9027C19.1454 37.1475 20.8591 37.144 22.5451 36.8923C22.5511 36.8928 22.5572 36.8917 22.5625 36.8889C23.2392 36.7791 23.8552 36.4334 24.3014 35.9129C24.7475 35.3923 24.995 34.7307 25 34.0452C25.0139 33.434 25.0139 32.7186 25.0173 32.1354C25.0175 32.0548 25.0413 31.976 25.0857 31.9088C25.1301 31.8415 25.1933 31.7887 25.2673 31.757C26.0701 31.4046 26.8326 30.9669 27.5417 30.4513C27.5452 30.4513 27.5487 30.4478 27.5522 30.4444C27.6162 30.3983 27.6921 30.3715 27.7709 30.3672C27.8496 30.3629 27.928 30.3812 27.9966 30.42C28.0036 30.4235 28.007 30.427 28.0139 30.427C28.5139 30.7048 29.1216 31.0555 29.6459 31.3541C30.245 31.6973 30.9464 31.8169 31.6255 31.6917C32.3045 31.5665 32.9171 31.2045 33.3543 30.6701C33.3612 30.6632 33.3646 30.6562 33.3682 30.6527C34.4249 29.3139 35.279 27.827 35.9028 26.2396C35.9028 26.2361 35.9064 26.2327 35.9064 26.2257C36.1494 25.5845 36.158 24.878 35.9305 24.2312C35.703 23.5843 35.2542 23.0387 34.6633 22.6908C34.139 22.3749 33.5209 22.0173 33.0174 21.7221C32.9472 21.6822 32.8905 21.6222 32.8546 21.5498C32.8187 21.4774 32.8053 21.396 32.816 21.3159C32.9121 20.4448 32.9144 19.566 32.823 18.6944V18.6804C32.8139 18.6019 32.8282 18.5225 32.864 18.4521C32.8998 18.3817 32.9556 18.3235 33.0244 18.2846C33.0283 18.2803 33.033 18.2768 33.0383 18.2742C33.5278 17.979 34.1355 17.6249 34.6564 17.3228C35.2535 16.9763 35.7081 16.4289 35.939 15.7783C36.1698 15.1277 36.1619 14.4162 35.9167 13.7708C35.9133 13.7638 35.9133 13.7534 35.9098 13.7465C35.2782 12.1634 34.4184 10.6813 33.3577 9.34713L33.3473 9.33675C32.9135 8.80536 32.3058 8.44453 31.6315 8.31807C30.9573 8.19161 30.2601 8.30769 29.6633 8.64575C29.1251 8.94447 28.507 9.2986 28.0036 9.58672C27.9336 9.62735 27.8533 9.64669 27.7725 9.64238C27.6917 9.63807 27.6139 9.6103 27.5487 9.56245C26.8424 9.04254 26.0823 8.60021 25.2813 8.2431L25.271 8.236C25.1983 8.20458 25.1363 8.15276 25.0926 8.08681C25.0488 8.02087 25.0251 7.94363 25.0244 7.86449V7.8472C25.014 7.27426 25.014 6.57278 25.0105 5.96879ZM22.5105 5.97567V5.97914C22.5139 6.59012 22.5139 7.30199 22.5244 7.88532C22.5293 8.44468 22.6953 8.99078 23.0026 9.45821C23.3099 9.92563 23.7454 10.2946 24.257 10.5208C24.8952 10.8072 25.5015 11.1598 26.0661 11.5728C26.5206 11.9086 27.063 12.1048 27.6272 12.1375C28.1914 12.1702 28.7528 12.038 29.2431 11.757C29.7397 11.4722 30.3508 11.125 30.8751 10.8333C30.8813 10.8306 30.8872 10.8271 30.8925 10.8229C30.9743 10.7765 31.0695 10.7594 31.1623 10.7746C31.2552 10.7897 31.34 10.8362 31.4028 10.9062C32.3061 12.0444 33.0394 13.3076 33.5799 14.6563C33.614 14.7485 33.6147 14.8498 33.5817 14.9425C33.5487 15.0351 33.4841 15.1132 33.3994 15.1631C32.8716 15.4722 32.2535 15.8299 31.7535 16.1285C31.2716 16.4128 30.8817 16.8299 30.6305 17.3298C30.3793 17.8298 30.2774 18.3916 30.3369 18.9479C30.4075 19.6442 30.4052 20.3459 30.3299 21.0416C30.2679 21.6032 30.37 22.1707 30.6239 22.6755C30.8778 23.1802 31.2726 23.6005 31.7605 23.8854C32.257 24.1701 32.8611 24.5243 33.3786 24.8368L33.3924 24.8472C33.4736 24.8936 33.5363 24.9667 33.5698 25.054C33.6033 25.1413 33.6057 25.2375 33.5765 25.3263C33.0434 26.6793 32.3159 27.9473 31.4167 29.0902C31.3538 29.1654 31.2664 29.216 31.1699 29.2332C31.0734 29.2503 30.9739 29.2329 30.889 29.184C30.3577 28.8819 29.7397 28.5277 29.2293 28.243C28.7425 27.9673 28.1866 27.8377 27.6281 27.8698C27.0695 27.9018 26.5321 28.0941 26.08 28.4236C25.5135 28.8346 24.9047 29.1838 24.2639 29.4653C23.746 29.6921 23.3052 30.0646 22.9951 30.5374C22.685 31.0102 22.5191 31.563 22.5175 32.1284C22.514 32.6979 22.514 33.3992 22.5001 34.0034V34.0207C22.4998 34.1146 22.4672 34.2055 22.4078 34.2783C22.3484 34.351 22.2657 34.4011 22.1737 34.42C20.7364 34.6347 19.2755 34.6394 17.8369 34.4339C17.7405 34.4165 17.6531 34.3661 17.5898 34.2913C17.5264 34.2166 17.491 34.1221 17.4897 34.0242V34.0207C17.4862 33.4097 17.4862 32.6979 17.4757 32.1145C17.4708 31.5551 17.3048 31.0091 16.9975 30.5417C16.6902 30.0742 16.2547 29.7053 15.7432 29.479C15.105 29.1927 14.4986 28.8401 13.9341 28.427C13.4796 28.0913 12.9371 27.8951 12.3729 27.8624C11.8088 27.8297 11.2473 27.962 10.757 28.243C10.2605 28.5277 9.64935 28.875 9.12506 29.1666C9.11885 29.1693 9.11302 29.1728 9.10773 29.177C9.02592 29.2235 8.93068 29.2406 8.83783 29.2254C8.74497 29.2103 8.6601 29.1638 8.59731 29.0937C7.69404 27.9556 6.9607 26.6924 6.42022 25.3437C6.3861 25.2514 6.3855 25.1501 6.4185 25.0575C6.45151 24.9648 6.51603 24.8867 6.60079 24.8368C7.12854 24.5278 7.74662 24.1701 8.24662 23.8715C8.72854 23.5872 9.11841 23.1701 9.36962 22.6701C9.62083 22.1701 9.72277 21.6084 9.66325 21.052C9.59273 20.3558 9.59508 19.6541 9.67024 18.9583C9.73231 18.3967 9.63021 17.8292 9.3763 17.3245C9.12239 16.8197 8.72758 16.3995 8.23968 16.1145C7.74313 15.8298 7.13898 15.4757 6.62161 15.1631L6.60773 15.1528C6.52656 15.1064 6.46392 15.0333 6.4304 14.946C6.39687 14.8587 6.39451 14.7625 6.42372 14.6737C6.95671 13.3206 7.68426 12.0526 8.58339 10.9097C8.64627 10.8344 8.73367 10.7838 8.8302 10.7667C8.92674 10.7495 9.02622 10.767 9.11115 10.816C9.6424 11.118 10.2605 11.4722 10.7709 11.757C11.2577 12.0326 11.8136 12.1621 12.3721 12.1301C12.9306 12.0981 13.4681 11.9059 13.9202 11.5764C14.4866 11.1653 15.0954 10.8161 15.7362 10.5346C16.2541 10.3078 16.695 9.93529 17.0051 9.46248C17.3152 8.98966 17.4811 8.4369 17.4827 7.87147C17.4862 7.30202 17.4862 6.60064 17.5 5.99647V5.97914C17.5004 5.88522 17.533 5.79426 17.5924 5.72154C17.6518 5.64881 17.7345 5.59875 17.8265 5.57976C19.2638 5.3651 20.7247 5.36042 22.1633 5.56588C22.2597 5.58331 22.3471 5.63372 22.4104 5.70847C22.4738 5.78322 22.5091 5.8777 22.5105 5.97567ZM20.0001 13.559C18.7261 13.559 17.4808 13.9367 16.4216 14.6445C15.3624 15.3522 14.5368 16.3581 14.0493 17.5351C13.5618 18.712 13.4342 20.0071 13.6827 21.2565C13.9313 22.506 14.5447 23.6537 15.4455 24.5545C16.3463 25.4553 17.494 26.0687 18.7434 26.3172C19.9928 26.5658 21.2879 26.4382 22.4649 25.9507C23.6418 25.4632 24.6478 24.6376 25.3555 23.5784C26.0633 22.5192 26.441 21.2739 26.441 20C26.4404 18.2919 25.7616 16.6539 24.5539 15.4462C23.3461 14.2384 21.7081 13.5596 20.0001 13.559ZM20.0001 16.059C20.7795 16.059 21.5414 16.2901 22.1895 16.7231C22.8376 17.1562 23.3427 17.7717 23.641 18.4918C23.9393 19.2119 24.0174 20.0043 23.8653 20.7688C23.7132 21.5332 23.3379 22.2354 22.7868 22.7866C22.2356 23.3377 21.5334 23.7131 20.7689 23.8652C20.0045 24.0172 19.2121 23.9392 18.492 23.6409C17.7718 23.3426 17.1563 22.8375 16.7233 22.1894C16.2903 21.5414 16.0591 20.7794 16.0591 20C16.0601 18.9551 16.4756 17.9532 17.2145 17.2144C17.9533 16.4755 18.9551 16.06 20.0001 16.059Z" fill="white"/>
</svg>
