<svg width="37" height="37" viewBox="0 0 37 37" fill="none" xmlns="http://www.w3.org/2000/svg">
<path d="M18.5008 1.15625C-4.62314 1.56169 -4.62679 35.435 18.5 35.8438C41.6232 35.4383 41.6269 1.56504 18.5008 1.15625ZM18.5 32.9531C-0.772368 32.6126 -0.769305 4.38462 18.5006 4.04688C37.7723 4.38739 37.7693 32.6154 18.5 32.9531ZM25.302 13.7545C25.1922 16.5729 23.6517 17.3569 21.5374 19.3641C21.1778 19.6272 20.8779 19.9636 20.6576 20.351C20.4373 20.7383 20.3015 21.168 20.2592 21.6116C20.2094 22.1103 19.9687 22.5704 19.5875 22.8958C19.2063 23.2212 18.7141 23.3866 18.2138 23.3576C17.9221 23.3639 17.6325 23.3086 17.3637 23.1953C17.0949 23.082 16.853 22.9133 16.6539 22.7001C16.4548 22.4869 16.303 22.2341 16.2083 21.9582C16.1136 21.6823 16.0782 21.3895 16.1045 21.099C16.0669 19.7868 16.5469 18.5125 17.4409 17.5512C17.9582 16.9505 19.4868 15.6695 20.052 15.1074C22.1818 12.9434 18.8209 10.9911 17.055 12.5008C16.6084 13.034 16.2784 13.6548 16.0862 14.3232C15.639 15.81 14.6674 16.1254 13.932 16.1254C11.3247 16.0362 11.2681 13.0334 12.5454 11.2884C13.1503 10.3539 13.987 9.59219 14.974 9.07749C16.1062 8.48249 17.3708 8.18405 18.6496 8.21001C19.8354 8.18872 21.0106 8.43597 22.0873 8.93325C23.0458 9.3752 23.8644 10.0719 24.454 10.9473C25.0092 11.778 25.3044 12.7553 25.302 13.7545ZM18.3511 28.808C15.0462 28.8003 15.0523 23.9373 18.3511 23.8939C21.6068 23.9417 21.5959 28.7845 18.3511 28.808Z" fill="white"/>
</svg>
