<svg width="101" height="101" viewBox="0 0 101 101" fill="none" xmlns="http://www.w3.org/2000/svg">
<path d="M98.5333 81.8655H66.8044V76.6502C70.5296 75.1382 73.8529 72.8341 76.5595 69.94L77.9409 69.6849C83.0402 68.7436 87.7464 66.3839 91.5514 62.8611C95.3566 59.3383 98.0713 54.827 99.402 49.8153L100.535 45.5472C101.764 40.9198 100.521 36.0923 97.2108 32.6334C93.9006 29.1743 89.1316 27.7213 84.4551 28.7463L76.8639 30.41L74.8475 26.3637C74.0693 24.8019 72.8131 23.6008 71.3055 22.8904C71.7284 21.8259 71.6096 20.6161 70.9644 19.6483C68.8644 16.4982 65.3504 14.6174 61.5643 14.6174C59.8566 14.6174 58.2975 13.7917 57.3376 12.4434C58.2667 11.5855 58.8895 10.306 58.8895 8.38935C58.8895 3.76345 55.1261 0 50.5003 0C45.8745 0 42.1112 3.76345 42.1112 8.38935C42.1112 10.306 42.7337 11.5855 43.6628 12.4434C42.703 13.7917 41.1438 14.6174 39.4359 14.6174C35.6499 14.6174 32.1359 16.4982 30.036 19.6483C29.3908 20.6161 29.272 21.8259 29.695 22.8904C28.1873 23.6008 26.9313 24.8019 26.1529 26.3637L20.7644 37.1772C18.6349 35.6385 16.9475 33.5217 15.9388 31.0856L14.2086 26.9085C13.6341 25.5217 12.293 24.6256 10.792 24.6256H3.70381C2.25276 24.6256 0.969376 25.442 0.354315 26.7564C-0.260745 28.0708 -0.0652596 29.5795 0.86463 30.6935L1.87165 31.9003C3.33237 33.6509 4.32913 35.7597 4.75423 37.9994L5.09648 39.8026C5.2028 40.3621 5.92281 41.1508 6.82587 40.9801C7.62872 40.8278 8.1558 40.0534 8.00352 39.2507L7.66127 37.4475C7.14247 34.7143 5.92616 32.1406 4.14351 30.0044L3.13629 28.7973C2.86447 28.4715 2.97454 28.1385 3.03431 28.0103C3.09428 27.8822 3.2795 27.5844 3.70401 27.5844H10.792C11.092 27.5844 11.3601 27.7635 11.4749 28.0406L13.2049 32.2175C14.4887 35.3174 16.6803 37.9917 19.449 39.8699C16.3439 46.7673 16.2078 54.6511 19.1109 61.6712C19.2853 62.0928 19.4705 62.5084 19.6648 62.9191C14.3309 58.9049 10.6048 52.9552 9.35614 46.3769L9.2871 46.0126C9.13501 45.2097 8.36155 44.6822 7.5581 44.8341C6.75545 44.9862 6.22777 45.7601 6.37966 46.563L6.4489 46.9279C7.93921 54.7787 12.607 61.8239 19.2559 66.2564L23.9192 69.3654C26.7159 72.5291 30.2276 75.0391 34.1959 76.6498V81.8652H2.46698C1.10726 81.8652 0.00121757 82.9712 0.00121757 84.331V90.249C0.00121757 91.6087 1.10726 92.7148 2.46698 92.7148H7.89167V98.5342C7.89167 99.8939 8.99772 101 10.3574 101H24.1657C25.5255 101 26.6315 99.8939 26.6315 98.5342V92.7148H74.3687V98.5342C74.3687 99.8939 75.4748 101 76.8345 101H90.6428C92.0025 101 93.1086 99.8939 93.1086 98.5342V92.7148H98.5333C99.893 92.7148 100.999 91.6087 100.999 90.249V84.331C100.999 82.9716 99.893 81.8655 98.5333 81.8655ZM85.0885 31.6368C88.7489 30.8343 92.4819 31.9718 95.0733 34.6794C97.6645 37.3869 98.6372 41.1657 97.6756 44.7878L96.5421 49.0558C95.3554 53.5253 92.9346 57.5483 89.5413 60.6898C86.6571 63.36 83.1911 65.2774 79.4242 66.3091C80.2385 65.0774 80.9571 63.7762 81.568 62.4149C84.5518 61.1001 87.2343 59.0961 89.3484 56.5936C89.8757 55.9694 89.797 55.0359 89.1728 54.5086C88.5487 53.9813 87.6152 54.0599 87.088 54.684C85.9208 56.0657 84.5526 57.2704 83.0451 58.2569C84.7711 51.8742 84.0726 44.6463 80.9466 38.6031L86.3557 37.4175C87.9847 37.0602 89.6451 37.5664 90.7983 38.7713C91.9512 39.9758 92.3838 41.6571 91.9558 43.2686C91.5317 44.7749 90.8551 47.6783 90.2956 49.1967C90.0114 49.9626 90.402 50.8142 91.1679 51.0985C91.7329 51.2914 92.6351 51.151 93.0697 50.226C93.5122 49.1513 94.5032 45.1527 94.8159 44.0283C95.5108 41.4115 94.8082 38.6816 92.936 36.7253C91.0634 34.769 88.3672 33.9472 85.7223 34.5271L79.5861 35.8721L78.2252 33.141L85.0885 31.6368ZM50.5001 2.959C53.4944 2.959 55.9303 5.39504 55.9303 8.38935C55.9303 10.3084 55.1178 11.2215 50.5001 11.2215C45.8824 11.2215 45.0699 10.3084 45.0699 8.38935C45.0699 5.39504 47.5059 2.959 50.5001 2.959ZM21.8451 60.5407C19.131 53.9774 19.3914 46.5675 22.5588 40.2108L28.8014 27.6838C29.5877 26.1058 31.1715 25.1256 32.9342 25.1256H56.0739C56.8912 25.1256 57.5534 24.4632 57.5534 23.6461C57.5534 22.829 56.8912 22.1666 56.0739 22.1666C55.5776 22.1493 33.4524 22.1998 32.9579 22.1499C32.6697 22.1499 32.5288 21.967 32.4704 21.8579C32.412 21.7488 32.3379 21.53 32.4979 21.2904C34.0477 18.9652 36.6415 17.577 39.4359 17.577C42.2686 17.577 44.8407 16.1299 46.3176 13.7966C47.8134 14.1809 49.398 14.1811 50.5003 14.1811C51.6026 14.1811 53.1872 14.1809 54.6831 13.7966C56.1599 16.1299 58.732 17.577 61.5647 17.577C64.3591 17.577 66.9527 18.9652 68.5028 21.2904C68.6628 21.5302 68.5886 21.749 68.5302 21.8579C68.4718 21.967 68.331 22.1499 68.0428 22.1499C67.8806 22.1937 63.2189 22.1538 62.9489 22.1666C62.1316 22.1666 61.4694 22.829 61.4694 23.6461C61.4694 24.4632 62.1316 25.1256 62.9489 25.1256H68.0664C69.8294 25.1256 71.413 26.1058 72.1993 27.6838L78.4418 40.2108C81.6094 46.5675 81.8696 53.9776 79.1555 60.5407C76.5556 66.8281 71.4248 71.7769 65.056 74.1566H35.9442C29.5756 71.7768 24.4449 66.8279 21.8451 60.5407ZM23.6726 98.0414H10.8506V92.7152H23.6726V98.0414ZM90.1497 98.0414H77.3277V92.7152H90.1497V98.0414ZM98.0401 89.7562H2.96014V84.8245H51.881C52.6982 84.8245 53.3604 84.1621 53.3604 83.345C53.3604 82.528 52.6982 81.8655 51.881 81.8655H37.1548V77.1156H63.8454V81.8655H58.806C57.9888 81.8655 57.3265 82.528 57.3265 83.345C57.3265 84.1621 57.9888 84.8245 58.806 84.8245H98.0401V89.7562Z" fill="#4E4E4E"/>
</svg>
