<svg width="24" height="24" viewBox="0 0 24 24" fill="none" xmlns="http://www.w3.org/2000/svg">
<g clip-path="url(#clip0_27_75)">
<path d="M18.5946 13.5382L15.2047 12.6299C14.9834 12.5693 14.75 12.5686 14.5284 12.628C14.3068 12.6874 14.105 12.8047 13.9438 12.9678L12.9105 14.001C12.8823 14.0312 12.8442 14.0503 12.8031 14.0549C12.762 14.0594 12.7206 14.0492 12.6864 14.0259C11.3517 13.1806 10.8195 12.6484 9.9742 11.3138C9.95092 11.2796 9.94062 11.2382 9.94518 11.197C9.94973 11.1559 9.96884 11.1178 9.99905 11.0895L11.0323 10.0563C11.1954 9.89501 11.3127 9.69322 11.3721 9.47161C11.4315 9.25001 11.4308 9.0166 11.3702 8.79534L10.4618 5.40553C10.4221 5.25795 10.3349 5.12756 10.2137 5.03452C10.0924 4.94148 9.94389 4.89097 9.79106 4.8908H6.21192C5.87765 4.89075 5.5561 5.01893 5.31354 5.24894C5.07098 5.47894 4.92589 5.79323 4.90819 6.12703C4.8114 7.88406 5.09842 9.64108 5.74931 11.276C6.37767 12.8511 7.32014 14.2818 8.51929 15.481C9.71844 16.6801 11.1492 17.6226 12.7243 18.251C14.1515 18.8195 15.674 19.111 17.2103 19.1098C17.4305 19.1098 17.6515 19.1039 17.8733 19.0921C18.2071 19.0744 18.5214 18.9293 18.7514 18.6867C18.9814 18.4442 19.1095 18.1226 19.1095 17.7884V14.209C19.1093 14.0562 19.0588 13.9076 18.9657 13.7864C18.8726 13.6651 18.7422 13.5779 18.5946 13.5382ZM17.9842 17.7881C17.9843 17.8343 17.9665 17.8788 17.9348 17.9124C17.903 17.9459 17.8595 17.966 17.8133 17.9684C14.6659 18.136 11.5685 16.9391 9.31491 14.6853C7.0613 12.4315 5.86444 9.33384 6.03178 6.18684C6.03424 6.14069 6.05432 6.09723 6.08787 6.06543C6.12142 6.03364 6.16588 6.01592 6.21211 6.01594H9.46078L10.2836 9.08663C10.2937 9.11709 10.2946 9.14985 10.2863 9.18084C10.278 9.21183 10.2607 9.23971 10.2367 9.261L9.20344 10.294C8.99254 10.503 8.85965 10.778 8.82694 11.0732C8.79423 11.3683 8.86367 11.6657 9.02367 11.9159C9.96642 13.4045 10.5957 14.0337 12.0843 14.9765C12.3345 15.1366 12.6319 15.206 12.927 15.1733C13.2222 15.1406 13.4972 15.0077 13.7062 14.7968L14.7394 13.7635C14.7607 13.7395 14.7885 13.7223 14.8195 13.7139C14.8505 13.7056 14.8833 13.7066 14.9137 13.7167L17.9844 14.5395L17.9842 17.7881ZM12 0C5.38317 0 0 5.38317 0 12C0 18.6168 5.38317 24 12 24C18.6168 24 24 18.6168 24 12C24 5.38317 18.6168 0 12 0ZM12 22.875C6.00352 22.875 1.125 17.9965 1.125 12C1.125 6.00352 6.00352 1.125 12 1.125C17.9965 1.125 22.875 6.00352 22.875 12C22.875 17.9965 17.9965 22.875 12 22.875Z" fill="#C69A5B"/>
</g>
<defs>
<clipPath id="clip0_27_75">
<rect width="24" height="24" fill="white"/>
</clipPath>
</defs>
</svg>
